<svg width="46" height="46" viewBox="0 0 46 46" fill="none" xmlns="http://www.w3.org/2000/svg">
<g clip-path="url(#clip0_149_526)">
<path d="M5.392 0.491943C2.268 0.491943 0 2.64694 0 5.61394C0 8.57994 2.223 10.7329 5.284 10.7329C6.872 10.7329 8.24 10.2179 9.241 9.24394C10.201 8.30894 10.73 7.01994 10.729 5.59094C10.659 2.58894 8.464 0.491943 5.392 0.491943ZM7.847 7.81094C7.227 8.41394 6.34 8.73294 5.284 8.73294C3.351 8.73294 2 7.45094 2 5.61394C2 3.74694 3.363 2.49194 5.392 2.49194C7.375 2.49194 8.685 3.72694 8.73 5.61494C8.729 6.47694 8.416 7.25594 7.847 7.81094Z" fill="#6B7280"/>
<path d="M0.959015 45.4669H9.94701V12.4219H0.959015V45.4669ZM2.95901 14.4219H7.94701V43.4659H2.95901V14.4219Z" fill="#6B7280"/>
<path d="M33.648 12.4219C29.48 12.4219 26.928 13.8609 25.45 15.2139L25.169 12.4219H15V45.4659H24.959V28.0989C24.959 27.3509 25.262 25.7979 25.452 25.3879C26.655 22.7969 28.278 22.7969 30.736 22.7969C33.567 22.7969 35.959 25.4519 35.959 28.5939V45.4679H45.959V26.7979C45.959 16.9199 39.577 12.4219 33.648 12.4219ZM43.959 43.4669H37.959V28.5929C37.959 24.3659 34.651 20.7959 30.736 20.7959C28.224 20.7959 25.378 20.7959 23.637 24.5459C23.278 25.3209 22.958 27.1779 22.958 28.0989V43.4669H17V14.4219H23.36L23.768 18.4659H25.407L25.7 17.9929C26.367 16.9189 28.476 14.4209 33.648 14.4209C38.614 14.4209 43.959 18.2929 43.959 26.7949V43.4669V43.4669Z" fill="#6B7280"/>
</g>
<defs>
<clipPath id="clip0_149_526">
<rect width="45.959" height="45.959" fill="white"/>
</clipPath>
</defs>
</svg>
