<svg width="91" height="103" viewBox="0 0 91 103" fill="none" xmlns="http://www.w3.org/2000/svg">
<path d="M63.4874 4.18408C49.6423 4.18408 38.4164 15.4081 38.4164 29.2551C38.4164 43.1002 49.6423 54.3261 63.4874 54.3261C77.3344 54.3261 88.5584 43.1002 88.5584 29.2551C88.5584 15.4081 77.3344 4.18408 63.4874 4.18408Z" fill="#720505"/>
<path d="M77.239 58.6781C76.9855 53.2434 71.9168 46.0492 70.2469 43.815L73.7315 39.8882L65.2602 28.5727L63.169 29.2627C62.5438 29.4686 61.9319 29.7259 61.339 30.0309C61.2189 29.7164 61.0912 29.4095 60.9559 29.1064C63.9182 26.0088 65.5404 22.0933 65.5404 18.0044C65.5404 13.8183 63.8286 9.78466 60.7214 6.65079C60.7214 6.65079 63.1195 9.676 60.6795 6.60694C58.2395 3.53978 52.7418 0.213379 52.7418 0.213379L55.687 9.89904L55.7194 9.98291C56.6992 12.3238 56.3999 16.8893 54.2077 20.1794C53.8913 20.656 53.5367 21.0963 53.1517 21.4967C50.847 20.5245 48.1859 20.0327 45.2331 20.0327C42.7931 20.0327 40.559 20.3682 38.5765 21.0277C38.3496 20.7589 38.138 20.4749 37.9398 20.1794C35.3892 16.3498 35.9497 11.994 36.5101 9.737C37.2421 6.79185 37.8216 5.69385 37.8731 5.59854L40.1301 2.07007C40.1301 2.07007 37.4461 2.48182 35.8467 3.34535C34.2474 4.20697 33.6431 4.10022 31.3556 6.72704C29.0605 9.36147 26.609 13.7077 26.609 18.0044C26.609 21.5939 27.9015 25.1319 30.2614 28.0465C29.945 28.6584 29.6667 29.2989 29.4303 29.9604C28.8794 29.6859 28.3132 29.4533 27.7375 29.2627L25.6464 28.5708L17.175 39.8882L20.6406 43.7941C17.8441 47.4407 14.0411 54.2861 13.6713 58.6114C13.1166 65.0983 20.0706 68.3104 20.3661 68.4438L23.4847 69.8487L25.8046 62.6774C26.1916 62.6602 26.6033 62.6507 27.0246 62.6507C28.9633 62.6507 31.0563 62.8261 32.629 63.1139C32.8863 63.6038 33.1418 64.0785 33.3896 64.5303C33.6355 64.9744 33.8757 65.3976 34.1082 65.7979L29.9526 72.7519L32.1772 74.4027C32.446 74.601 38.8071 79.2637 45.2331 79.2637C51.5981 79.2637 58.3576 74.6601 58.6417 74.4637L61.0035 72.8377L56.7983 65.7979C57.0309 65.3995 57.2711 64.9744 57.517 64.5303C57.7667 64.0766 58.0221 63.6019 58.2776 63.1139C59.8369 62.8318 61.9319 62.6602 63.8858 62.6602C64.309 62.6602 64.7207 62.6679 65.1039 62.685L67.4219 69.8487L70.5481 68.44C71.7185 67.9215 77.5345 65.0068 77.239 58.6781Z" fill="white"/>
<path d="M53.777 31.1404L53.7465 31.0127L53.8646 30.9594C54.9264 30.4771 55.9329 29.8957 56.8556 29.2285L56.9947 29.1274L57.1186 29.3295C57.1415 29.3695 57.1644 29.4077 57.1872 29.4458C57.4141 29.8385 57.6276 30.2617 57.8201 30.702C58.6913 32.7055 58.8781 34.5164 58.9181 35.2008L58.92 35.2637L58.88 35.3132C57.5971 36.8268 56.8441 38.3461 56.5105 39.1181L56.4629 39.2287L56.3428 39.2115C56.0111 39.1658 55.4678 39.0933 54.7701 39.0114L54.631 38.9942V38.8531C54.6291 37.8581 54.57 35.237 54.0419 32.4081C53.9619 31.9792 53.8723 31.5522 53.777 31.1404ZM59.2822 42.6904L59.1697 42.7476C57.5914 43.5539 52.9916 45.4259 44.3887 45.4259C36.1499 45.4259 32.7625 43.6188 31.6873 42.8429L31.5653 42.7552L31.4719 42.8715C30.9877 43.472 30.7723 43.9047 30.8143 44.1944L30.8162 44.2078L30.82 44.2211C30.9172 44.528 31.9409 45.2963 35.1186 46.0054C38.0046 46.6497 41.596 47.0062 45.2331 47.0062C48.8684 47.0062 52.5207 46.6535 55.5174 46.0149C58.8666 45.302 59.9704 44.5242 60.0866 44.2135L60.0924 44.1964L60.0962 44.1792C60.1362 43.8856 59.896 43.43 59.3623 42.7876L59.2822 42.6904ZM53.552 38.8722L53.7293 38.8913L53.7274 38.714C53.7141 37.5626 53.6264 35.2579 53.1784 32.755C53.106 32.3414 53.024 31.9334 52.9363 31.5446L52.8963 31.3673L52.7266 31.4302C50.6202 32.2194 48.3804 32.6197 46.0738 32.6197C46.0185 32.6197 45.9651 32.6178 45.9099 32.6178L45.683 32.614V38.3575L45.8393 38.3594C48.632 38.3937 51.5752 38.6568 53.552 38.8722ZM23.3799 52.4752C22.3886 51.625 21.6547 50.4984 21.2125 49.7016L21.0791 49.4595L20.938 49.6978C20.1355 51.055 19.3977 52.4542 18.8087 53.7409L18.782 53.7962L18.8011 53.8553C18.9307 54.2594 19.2186 55.0849 19.678 56.0532C20.3756 57.5268 21.4965 59.3777 22.8709 59.8257L23.0215 59.8753L25.0917 53.476L24.9487 53.4245C24.4131 53.2282 23.8851 52.9079 23.3799 52.4752ZM34.3408 40.1513L34.3084 40.1761C33.6069 40.7213 32.8959 41.3522 32.305 41.9508L32.1715 42.0861L32.3278 42.1929C33.361 42.8944 36.6055 44.528 44.3906 44.528C52.3377 44.528 56.8651 42.8277 58.4435 42.0957L58.6493 42.0004L58.4873 41.8402C57.9154 41.2703 57.2444 40.6793 56.602 40.178L56.5677 40.1513L56.5258 40.1456C55.4831 39.9969 50.0312 39.2554 45.2293 39.2554C40.4561 39.2554 35.355 39.995 34.3809 40.1437L34.3408 40.1513ZM37.1754 38.8703L37.3527 38.8493C39.177 38.6454 41.9201 38.3918 44.627 38.3594L44.7833 38.3575V32.5759L44.6365 32.5644C42.41 32.4005 40.2769 31.8629 38.2963 30.9651L38.1228 30.8869L38.0771 31.0718C37.9494 31.5941 37.835 32.1431 37.734 32.7036C37.2803 35.2122 37.1907 37.5321 37.1773 38.6911L37.1754 38.8703ZM51.5409 25.6199L51.6172 25.7324L51.7392 25.6733C51.9832 25.5589 52.2272 25.4331 52.4693 25.2959L52.7304 25.1491L52.4616 25.0176C51.9965 24.7888 51.4971 24.5829 50.9767 24.4038L50.4162 24.2131L50.8051 24.6573C51.0625 24.9509 51.3103 25.2749 51.5409 25.6199ZM40.5457 25.5189L40.418 25.679L40.6048 25.7629C41.821 26.3081 43.1687 26.6531 44.6098 26.7885L44.7833 26.8056V23.5498L44.6212 23.5536C43.9807 23.5707 43.3593 23.6146 42.776 23.6851L42.5587 23.7213L42.5892 23.7842C41.8381 24.1807 41.1519 24.764 40.5457 25.5189ZM46.0738 26.8571C47.6922 26.8571 49.2058 26.6169 50.5726 26.148L50.7727 26.0794L50.6488 25.9059C49.9664 24.9489 49.1696 24.2284 48.2793 23.7671L48.2565 23.7556L48.2298 23.7518C47.4806 23.6413 46.6781 23.5745 45.8451 23.5536L45.683 23.5479V26.8514L45.9232 26.8552C45.9728 26.8552 46.0242 26.8571 46.0738 26.8571ZM39.4934 25.1891L39.6154 25.2597L39.6993 25.1491C39.8823 24.9089 40.0672 24.6859 40.2521 24.4857L40.6429 24.0625L40.0901 24.2284C39.747 24.3294 39.4 24.4514 39.0264 24.6001L38.7462 24.7107L38.9978 24.8784C39.1598 24.9852 39.3257 25.09 39.4934 25.1891ZM21.1686 59.8181C19.8819 58.6629 18.9536 56.7738 18.4008 55.3918L18.2521 55.0181L18.1072 55.3937C17.5658 56.7909 17.2513 57.9747 17.1712 58.9107C17.1083 59.6408 17.217 60.3652 17.4953 61.0629C18.2654 63.0034 20.1412 64.3092 21.1896 64.9154L21.3593 65.0145L22.7451 60.7293L22.5964 60.6797C22.1103 60.5215 21.63 60.2317 21.1686 59.8181ZM24.5904 44.5681C23.805 45.3782 22.7451 46.8041 21.6833 48.4797L21.6376 48.554L21.6757 48.6322C21.7977 48.8876 21.9998 49.286 22.2781 49.7378C22.9014 50.7558 23.9175 52.073 25.2137 52.5648L25.3681 52.6239L26.266 49.8484L26.2355 49.7683L26.3003 49.7454L27.1314 47.1758L24.7105 44.4461L24.5904 44.5681ZM34.3942 39.1143L34.4438 39.2249L34.562 39.2077C34.8994 39.1581 35.4465 39.0819 36.1346 38.9942L36.2738 38.977V38.8379C36.2757 37.5607 36.3596 35.0025 36.899 32.2194C37.0058 31.6609 37.1297 31.1157 37.265 30.5934L37.2955 30.4752L37.1869 30.4161C36.1537 29.8575 35.1872 29.1999 34.3141 28.4603L34.1788 28.3478L34.0816 28.4927C33.7861 28.9254 33.5192 29.3886 33.2848 29.8671C32.1296 32.2289 31.9942 34.5431 31.9809 35.1969L31.979 35.256L32.0171 35.3018C33.3038 36.8173 34.0587 38.3404 34.3942 39.1143ZM73.7354 58.9107C73.6649 58.0891 73.4132 57.075 72.9881 55.895L72.8528 55.5195L72.6946 55.8855C72.1113 57.2389 71.141 59.0613 69.8276 60.0716C69.351 60.4376 68.8573 60.6721 68.3598 60.7712L68.1863 60.8055L69.5474 65.0145L69.717 64.9154C70.592 64.4102 72.1951 63.3218 73.0949 61.7243C73.602 60.8208 73.8193 59.8753 73.7354 58.9107ZM28.7174 36.2606C30.25 37.6045 31.3976 39.0571 32.1277 40.5783L32.2192 40.7689L32.3755 40.6259C32.732 40.3019 33.117 39.974 33.5173 39.6538L33.6126 39.5775L33.5631 39.4669C33.4087 39.1162 33.1399 38.5596 32.7472 37.9C31.7045 36.1482 29.8688 33.8302 27.0532 32.7455L26.9408 32.7017L25.839 34.1733L25.9896 34.2648C26.6453 34.6594 27.6518 35.3266 28.7174 36.2606ZM31.4586 41.52C30.5931 42.4369 30.0861 43.2184 29.9488 43.8456L29.8554 44.2745L29.6534 43.8837C28.9214 42.4731 27.8786 41.1006 26.5576 39.8063C25.3529 38.6301 24.2015 37.799 23.6239 37.4101L23.4847 37.3167L25.2957 34.8996L25.4177 34.972C26.3231 35.5134 28.0674 36.6743 29.5733 38.388C29.7944 38.6396 30.0003 38.8894 30.1871 39.1372C30.5131 39.5661 30.8028 40.0121 31.0526 40.4639C31.2165 40.7575 31.3633 41.0568 31.4891 41.3522L31.5291 41.4475L31.4586 41.52ZM29.6705 41.5848C29.6705 41.5848 29.6591 41.478 29.6248 41.2893C29.6057 41.1959 29.5847 41.0834 29.5561 40.9519C29.5199 40.8242 29.4685 40.685 29.4151 40.5287C29.3865 40.4525 29.356 40.3724 29.3255 40.2885C29.2931 40.2256 29.2607 40.1589 29.2283 40.0941C29.2206 40.0769 29.213 40.0617 29.2054 40.0445C29.1215 39.8749 29.0319 39.6976 28.9176 39.5279C28.8051 39.3545 28.6907 39.1772 28.5516 39.0114C28.4848 38.9256 28.4181 38.8417 28.3476 38.7578L28.1246 38.5195C27.9759 38.3575 27.8138 38.2107 27.6537 38.0697C27.5736 37.9972 27.4898 37.9305 27.4059 37.8676C27.322 37.8047 27.2401 37.7399 27.1581 37.6808C26.9884 37.5664 26.8283 37.4539 26.6644 37.3624C26.5023 37.269 26.346 37.1852 26.1973 37.1184C25.9057 36.9774 25.6464 36.8897 25.4634 36.8382C25.2785 36.7849 25.1699 36.7696 25.1699 36.7696C25.1699 36.7696 25.4844 37.0555 25.9552 37.4844C26.0734 37.5874 26.1973 37.7037 26.327 37.8238C26.4585 37.94 26.59 38.0735 26.733 38.1993C26.8664 38.3365 27.0132 38.4681 27.1524 38.611C27.2915 38.754 27.4402 38.8913 27.5756 39.0438L27.7871 39.2611C27.852 39.3373 27.9206 39.4098 27.9873 39.4841C28.0521 39.5604 28.1226 39.6309 28.1836 39.7052C28.2408 39.7739 28.298 39.8406 28.3552 39.9073C28.3609 39.913 28.3666 39.9187 28.3705 39.9264C28.5001 40.0655 28.6106 40.2142 28.7212 40.3495C28.7784 40.4182 28.8318 40.483 28.8851 40.5478C28.9347 40.6145 28.9824 40.6793 29.0281 40.7422C29.1234 40.8661 29.213 40.9786 29.2893 41.0796C29.3617 41.1864 29.4303 41.276 29.4856 41.3503C29.5962 41.5009 29.6705 41.5848 29.6705 41.5848ZM29.0929 44.7816L29.1387 44.8807L27.6537 46.4095L27.5336 46.2742L21.7024 39.6995L22.9434 38.0411L23.0673 38.1249C23.5267 38.4338 24.2415 38.9484 25.0517 39.6538C26.327 40.7613 28.0597 42.5494 29.0929 44.7816ZM27.77 44.0629C27.77 44.0629 27.7547 43.9657 27.7109 43.7999C27.6651 43.6359 27.5908 43.4053 27.4783 43.1384C27.3659 42.8734 27.2172 42.5703 27.0304 42.2615C26.937 42.109 26.8359 41.9527 26.7235 41.7983C26.6148 41.6439 26.4928 41.4933 26.3689 41.3446C26.2412 41.1978 26.1116 41.0529 25.9724 40.9195C25.9038 40.8528 25.8351 40.788 25.7608 40.7251C25.6922 40.6641 25.6216 40.6031 25.5473 40.5478C25.4024 40.4315 25.2537 40.3305 25.1089 40.2409C24.9621 40.1513 24.8191 40.0769 24.6819 40.0179C24.5446 39.9588 24.4169 39.913 24.3006 39.8825C24.2987 39.8825 24.2968 39.8806 24.2949 39.8806C24.1805 39.8482 24.07 39.8329 23.9861 39.8196C23.9003 39.8044 23.8317 39.8139 23.7859 39.8082C23.7402 39.8082 23.7154 39.8082 23.7154 39.8082C23.7154 39.8082 23.7364 39.8234 23.7726 39.8501C23.8088 39.8749 23.866 39.9092 23.9289 39.9569C23.9308 39.9588 23.9327 39.9607 23.9346 39.9626C24.0013 40.0102 24.0776 40.0693 24.1634 40.1418C24.2091 40.1761 24.2549 40.2142 24.3006 40.2561C24.3464 40.2981 24.3959 40.3381 24.4455 40.3858C24.6456 40.5688 24.863 40.7937 25.0917 41.0396C25.3186 41.2893 25.5568 41.5581 25.7894 41.8364C26.2583 42.3892 26.7273 42.9573 27.1066 43.3748C27.2934 43.5844 27.4593 43.756 27.5794 43.8761C27.6956 43.9962 27.77 44.0629 27.77 44.0629ZM57.3436 39.4669L57.294 39.5775L57.3893 39.6538C57.7381 39.9321 58.2681 40.3724 58.8056 40.8814L58.9677 41.0339L59.0592 40.8299C59.7435 39.2992 60.8472 37.8333 62.3436 36.4741C63.3768 35.5363 64.3833 34.8443 65.0448 34.4287L65.1897 34.3372L63.9659 32.7017L63.8534 32.7455C60.4355 34.0627 58.4721 37.1737 57.6047 38.9103C57.5094 39.1048 57.4198 39.2916 57.3436 39.4669ZM61.4611 44.2574L61.3638 44.4613L60.994 44.0782L60.9864 44.0248C60.9273 43.4396 60.5022 42.698 59.7187 41.8174L59.6558 41.7449L59.6882 41.6553C59.9475 40.9767 60.3078 40.2981 60.7576 39.6385C62.2655 37.4215 64.4462 35.8679 65.611 35.1398L65.7349 35.0635L67.5534 37.494L67.42 37.5874C66.8767 37.9648 66.3334 38.3861 65.8054 38.8379C64.4558 39.9874 62.6067 41.8612 61.4611 44.2574ZM64.3871 38.0754C64.5168 37.9553 64.6407 37.8409 64.757 37.738C65.2297 37.3091 65.5442 37.025 65.5442 37.025C65.5442 37.025 65.4337 37.0384 65.2507 37.0918C65.0677 37.1432 64.8084 37.2309 64.5149 37.372C64.3662 37.4406 64.2099 37.5226 64.0497 37.616C63.8858 37.7075 63.7257 37.8199 63.556 37.9343C63.4741 37.9934 63.3902 38.0563 63.3063 38.1211C63.2243 38.1859 63.1405 38.2508 63.0604 38.3232C62.8984 38.4643 62.7382 38.611 62.5896 38.7712L62.3665 39.0114C62.2941 39.0933 62.2293 39.181 62.1626 39.2649C62.0596 39.3869 61.97 39.5165 61.8861 39.6461C61.8576 39.6919 61.8251 39.7357 61.7966 39.7815C61.6822 39.9511 61.5926 40.1303 61.5087 40.2981C61.4687 40.3819 61.4286 40.4639 61.3886 40.544C61.3562 40.6259 61.3276 40.706 61.299 40.7823C61.2456 40.9367 61.1923 41.0777 61.158 41.2054C61.1275 41.3351 61.1065 41.4494 61.0874 41.5448C61.0531 41.7316 61.0417 41.8383 61.0417 41.8383C61.0417 41.8383 61.116 41.7544 61.2266 41.6039C61.2838 41.5295 61.3505 41.438 61.4229 41.3332C61.5011 41.2321 61.5888 41.1178 61.6841 40.9939C61.7298 40.9329 61.7775 40.868 61.829 40.8013C61.8804 40.7365 61.9357 40.6717 61.991 40.6031C62.1016 40.4658 62.2121 40.319 62.3417 40.178C62.4046 40.1074 62.4656 40.0331 62.5266 39.9569C62.5915 39.8825 62.662 39.8139 62.7268 39.7376C62.7935 39.6652 62.8621 39.5909 62.927 39.5146L62.9765 39.4631L63.1386 39.2973C63.272 39.1467 63.4188 39.0094 63.5598 38.8646C63.699 38.7216 63.8458 38.592 63.9811 38.4547C64.1241 38.327 64.2537 38.1936 64.3871 38.0754ZM68.0948 38.2164L67.9709 38.3041C66.6861 39.2039 63.5427 41.661 62.0825 45.0637L62.0425 45.1609L63.2529 46.4076L69.2061 39.6995L68.0948 38.2164ZM71.2573 56.7814C71.65 56.0494 72.0293 55.1878 72.3286 54.3586L72.3496 54.2995L72.3248 54.2423C71.7453 52.9232 70.9999 51.4706 70.1688 50.0371L70.0335 49.8045L69.8962 50.0371C69.3453 50.9635 68.4341 52.2293 67.2236 52.9918C66.8271 53.2415 66.4192 53.4245 66.0075 53.5332L65.8454 53.577L67.9023 59.9267L68.03 59.9115C69.3987 59.7552 70.5405 58.1234 71.2573 56.7814ZM68.4208 50.6242C68.8821 50.0123 69.2347 49.3966 69.4482 48.9868L69.4902 48.9067L69.4425 48.8304C68.3026 46.9947 67.1626 45.4411 66.3163 44.5681L66.1962 44.4461L63.7752 47.1758L65.5671 52.7154L65.7101 52.6811C66.648 52.4542 67.5591 51.7623 68.4208 50.6242ZM53.1994 66.6196L56.297 71.8046L56.1674 71.8865C54.7282 72.7939 49.6842 75.7524 45.2331 75.7524C40.8011 75.7524 36.0698 72.8034 34.7278 71.8999L34.602 71.8179L37.7073 66.6196L37.8483 66.8159C39.1522 68.644 39.7107 68.7145 39.9776 68.7469C40.2502 68.7813 40.5171 68.7984 40.7992 68.7984C41.5102 68.7984 42.1736 68.6898 42.8732 68.5754C43.6014 68.4553 44.3544 68.3352 45.2122 68.3352C46.0605 68.3352 46.903 68.4553 47.7189 68.5697C48.5367 68.6879 49.3087 68.7984 50.0807 68.7984C50.3819 68.7984 50.6583 68.7813 50.929 68.7469C51.1959 68.7145 51.7544 68.644 53.0583 66.8159L53.1994 66.6196ZM48.5691 70.1995C46.0605 68.3771 42.3356 70.1995 42.3356 70.1995L45.46 74.3532L48.5691 70.1995ZM57.0061 46.7507C57.5799 46.602 58.0756 46.4534 58.4987 46.3066C58.3462 49.063 57.9269 54.9914 57.4217 56.3601C57.334 56.5984 57.1777 56.9682 56.9718 57.4295C56.6668 58.112 56.2494 58.9946 55.7728 59.9477C55.7499 59.9553 55.7232 59.9629 55.7004 59.9687L55.7251 60.0449C55.2962 60.9027 54.8216 61.8139 54.3412 62.6908C51.722 67.4545 50.8299 67.6909 50.7975 67.6966C49.8863 67.811 48.9065 67.6718 47.8676 67.5231C47.0174 67.4011 46.1367 67.2772 45.2122 67.2772C44.2686 67.2772 43.4737 67.4069 42.7055 67.5308C41.7905 67.6794 41.0013 67.8072 40.113 67.6985C40.0767 67.6909 39.1846 67.4545 36.5654 62.6908C35.5284 60.8036 34.5257 58.7449 33.9348 57.4295C33.7289 56.9701 33.5745 56.5984 33.4849 56.3601C32.9817 54.9972 32.5642 49.1164 32.4079 46.3447C32.8521 46.5029 33.3496 46.6535 33.9024 46.7984L34.0663 49.8045C34.0663 49.8045 36.7751 51.9129 38.4259 51.9815C39.9281 52.0463 42.7989 50.0733 43.5957 48.0394C44.139 48.0546 44.6841 48.0622 45.2331 48.0622C45.9213 48.0622 46.6133 48.0508 47.3052 48.026C48.0925 50.0638 50.9767 52.0463 52.4807 51.9815C54.1315 51.9129 56.8403 49.8045 56.8403 49.8045L57.0061 46.7507ZM40.1416 52.6372C40.1416 52.6372 40.0119 52.6391 39.8061 52.6525C39.7031 52.6601 39.5811 52.6754 39.4458 52.6925C39.4096 52.6963 39.3752 52.702 39.3409 52.7059C39.3047 52.7116 39.2666 52.7116 39.2266 52.7135C39.1503 52.7173 39.0721 52.723 38.9883 52.7287C38.9063 52.7364 38.8243 52.744 38.7347 52.7516C38.6509 52.7649 38.5613 52.7688 38.4679 52.7688C38.3764 52.7688 38.2849 52.7764 38.1896 52.7783C38.0942 52.7802 38.0008 52.7993 37.9036 52.7897C37.7092 52.7783 37.5128 52.7974 37.3108 52.7821C37.1125 52.7611 36.9105 52.7764 36.7084 52.7402C36.6093 52.7306 36.5082 52.7211 36.4072 52.7116C36.3081 52.6944 36.2071 52.6792 36.1079 52.6658C35.9078 52.6429 35.7152 52.5934 35.5227 52.5629C35.4255 52.5476 35.3359 52.5171 35.2406 52.5C35.1491 52.479 35.0557 52.4619 34.9699 52.4371C34.7926 52.3913 34.6191 52.3532 34.4628 52.3055C34.3027 52.2674 34.1578 52.2179 34.0244 52.1835C33.8891 52.1435 33.7728 52.1092 33.6775 52.0787C33.4754 52.0196 33.361 51.9834 33.361 51.9834C33.361 51.9834 33.3725 52.0139 33.4011 52.0634C33.4296 52.113 33.4697 52.1874 33.5307 52.275C33.5917 52.3627 33.6717 52.4638 33.7709 52.5743C33.8719 52.6811 33.9863 52.8069 34.1273 52.9194C34.1979 52.9784 34.2703 53.0414 34.3485 53.0985C34.4304 53.1576 34.5162 53.2129 34.602 53.2701C34.6878 53.3349 34.785 53.3788 34.8822 53.4321C34.9794 53.4836 35.0805 53.5389 35.1872 53.5846C35.294 53.6285 35.4026 53.6685 35.5151 53.7124C35.6256 53.7581 35.7419 53.7867 35.862 53.8172C35.9802 53.8439 36.0984 53.8801 36.2204 53.9011C36.3443 53.9182 36.4663 53.9335 36.5902 53.9487C36.838 53.983 37.0877 53.9678 37.3336 53.9621C37.4556 53.964 37.5757 53.9411 37.6939 53.9201C37.8121 53.9011 37.9284 53.882 38.0428 53.8591C38.1552 53.8401 38.2658 53.8039 38.3687 53.7676C38.4755 53.7314 38.5784 53.6971 38.6756 53.659C38.8758 53.5942 39.0474 53.4836 39.2056 53.3997C39.3619 53.3044 39.5087 53.2301 39.6211 53.1271C39.7336 53.0337 39.8327 52.9479 39.909 52.8755C40.0615 52.7306 40.1416 52.6372 40.1416 52.6372ZM57.2292 52.0787C57.132 52.1073 57.0157 52.1416 56.8822 52.1816C56.7469 52.2179 56.6039 52.2655 56.4419 52.3055C56.2856 52.3532 56.1121 52.3894 55.9348 52.4352C55.8491 52.4619 55.7556 52.479 55.6641 52.5C55.5688 52.5152 55.4792 52.5476 55.382 52.5629C55.1895 52.5934 54.997 52.641 54.7968 52.6639C54.6977 52.6792 54.5986 52.6944 54.4975 52.7116C54.3984 52.7211 54.2974 52.7287 54.1963 52.7383C53.9943 52.7745 53.7922 52.7592 53.594 52.7821C53.3938 52.7974 53.1956 52.7783 53.0011 52.7878C52.9039 52.7974 52.8105 52.7802 52.7152 52.7783C52.6199 52.7745 52.5284 52.7688 52.4369 52.7669C52.3454 52.7688 52.2558 52.7649 52.17 52.7516C52.0823 52.744 51.9984 52.7364 51.9165 52.7287C51.8326 52.723 51.7544 52.7173 51.6782 52.7135C51.6401 52.7097 51.6 52.7097 51.5638 52.7059C51.5295 52.702 51.4952 52.6963 51.459 52.6925C51.3236 52.6734 51.2016 52.6601 51.0987 52.6525C50.8928 52.6372 50.7632 52.6372 50.7632 52.6372C50.7632 52.6372 50.8432 52.7287 50.9957 52.8736C51.0739 52.946 51.1711 53.0318 51.2836 53.1271C51.3961 53.2282 51.5428 53.3025 51.6991 53.3978C51.8593 53.4836 52.0289 53.5942 52.2291 53.659C52.3263 53.6952 52.4292 53.7295 52.536 53.7657C52.6408 53.8019 52.7495 53.8401 52.862 53.8591C52.9763 53.882 53.0945 53.8992 53.2108 53.9201C53.329 53.9411 53.4491 53.964 53.573 53.9602C53.817 53.9678 54.0686 53.983 54.3145 53.9468C54.4384 53.9316 54.5604 53.9163 54.6843 53.8992C54.8063 53.8801 54.9245 53.8439 55.0446 53.8172C55.1628 53.7867 55.2791 53.7581 55.3896 53.7104C55.5021 53.6685 55.6127 53.6285 55.7194 53.5827C55.8243 53.5389 55.9253 53.4836 56.0225 53.4321C56.1197 53.3788 56.217 53.3349 56.3027 53.2701C56.3904 53.2129 56.4743 53.1576 56.5563 53.0985C56.6344 53.0414 56.7069 52.9784 56.7774 52.9194C56.9185 52.8069 57.0328 52.6811 57.1339 52.5743C57.233 52.4638 57.3131 52.3627 57.3741 52.275C57.4351 52.1874 57.477 52.1111 57.5037 52.0634C57.5323 52.012 57.5437 51.9834 57.5437 51.9834C57.5437 51.9834 57.4293 52.0196 57.2292 52.0787Z" fill="#C83A53"/>
<path d="M59.7949 11.2905C60.2105 14.5426 59.5548 18.7707 57.2615 22.2114C55.5307 24.8135 52.1814 27.913 46.0738 27.913C39.9661 27.913 36.6188 24.8135 34.886 22.2114C32.5947 18.7707 31.9389 14.5426 32.3526 11.2905C31.0029 13.3226 30.2786 15.6368 30.2786 18.0043C30.2786 25.4787 37.3641 31.5616 46.0738 31.5616C54.7853 31.5616 61.8708 25.4787 61.8708 18.0043C61.8708 15.6368 61.1465 13.3226 59.7949 11.2905ZM60.3821 17.2247C60.3706 17.3619 60.3554 17.5068 60.342 17.6593C60.2772 18.2712 60.1705 19.0147 59.936 19.8458C59.7092 20.675 59.3756 21.5957 58.8876 22.5431C58.3996 23.4905 57.7533 24.4608 56.9451 25.3834C56.5353 25.8371 56.0987 26.2946 55.6088 26.714C55.3724 26.9332 55.1113 27.1277 54.8539 27.3335C54.5852 27.5242 54.3221 27.7281 54.0362 27.9054C53.4776 28.2771 52.8772 28.605 52.2538 28.9024C51.6324 29.2055 50.9709 29.4437 50.2961 29.6515C49.6213 29.8612 48.9217 30.0023 48.2164 30.1147L47.6845 30.1834C47.5073 30.2082 47.3243 30.2158 47.1432 30.231C46.7714 30.2672 46.4455 30.2634 46.0738 30.2768C45.357 30.2653 44.6403 30.2196 43.933 30.1147C43.2277 30.0023 42.5281 29.8593 41.8533 29.6515C41.1785 29.4437 40.5189 29.2055 39.8956 28.9024C39.2723 28.605 38.6718 28.2771 38.1133 27.9035C37.8273 27.7281 37.5643 27.5242 37.2955 27.3335C37.04 27.1277 36.777 26.9313 36.5406 26.7121C36.0507 26.2927 35.6142 25.8371 35.2043 25.3815C34.3961 24.4589 33.7498 23.4905 33.2638 22.5431C32.7738 21.5957 32.4403 20.675 32.2134 19.8439C31.9789 19.0147 31.8722 18.2712 31.8074 17.6593C31.794 17.5068 31.7788 17.3619 31.7673 17.2247C31.7578 17.0893 31.7559 16.9597 31.7502 16.8396C31.7407 16.6013 31.7349 16.3993 31.7407 16.2353C31.7445 15.9075 31.7483 15.7321 31.7483 15.7321C31.7483 15.7321 31.7597 15.9075 31.7807 16.2353C31.7883 16.3993 31.8112 16.5994 31.8398 16.8339C31.855 16.9521 31.8684 17.0779 31.8874 17.2132C31.9084 17.3467 31.9313 17.4897 31.9561 17.6383C32.0609 18.2388 32.2191 18.9613 32.4898 19.7619C32.7586 20.5606 33.1341 21.4375 33.6431 22.3353C34.1578 23.2313 34.8231 24.1367 35.6218 25.0022C36.0297 25.4273 36.4624 25.8505 36.9447 26.2374C37.1773 26.4395 37.4346 26.6187 37.6824 26.8131C37.9436 26.9885 38.1971 27.1791 38.4735 27.3431C39.5544 28.0293 40.7744 28.5688 42.0611 28.95C42.7035 29.1445 43.3688 29.2741 44.0398 29.377C44.7108 29.4723 45.3932 29.5105 46.0738 29.5181C46.4016 29.5067 46.7772 29.5124 47.0993 29.48C47.2671 29.4647 47.4348 29.4609 47.6026 29.438L48.1096 29.377C48.7787 29.2741 49.444 29.1426 50.0864 28.9481C51.3731 28.5669 52.5931 28.0293 53.674 27.3412C53.9504 27.1791 54.2058 26.9885 54.4651 26.8112C54.7129 26.6187 54.9702 26.4395 55.2028 26.2374C55.6851 25.8505 56.1178 25.4273 56.5257 25.0022C57.3244 24.1367 57.9897 23.2313 58.5025 22.3353C59.0134 21.4375 59.3889 20.5606 59.6577 19.7619C59.9284 18.9613 60.0885 18.2388 60.1914 17.6383C60.2162 17.4897 60.2391 17.3467 60.262 17.2132C60.281 17.0779 60.2925 16.9521 60.3077 16.8339C60.3363 16.5994 60.3592 16.3974 60.3668 16.2353C60.3897 15.9075 60.4011 15.7321 60.4011 15.7321C60.4011 15.7321 60.403 15.9075 60.4088 16.2353C60.4145 16.4012 60.4088 16.6032 60.3992 16.8415C60.3935 16.9597 60.3916 17.0893 60.3821 17.2247Z" fill="#EAAA2E"/>
<path d="M29.2626 49.2575C30.0041 49.2575 30.7037 49.3566 31.3442 49.553L31.5653 49.6216L31.5482 49.3909C31.4357 47.8602 31.3614 46.5525 31.3309 46.0035L31.836 45.9787L31.308 45.71C30.9267 45.5136 30.6179 45.3096 30.393 45.1L30.2786 44.9951L28.035 47.3074L27.3373 49.4615L27.5984 49.4138C28.1627 49.3109 28.7231 49.2575 29.2626 49.2575Z" fill="#2E3182"/>
<path d="M61.6841 49.2574C62.2102 49.2574 62.7554 49.307 63.3063 49.4061L63.5656 49.4518L62.8717 47.3073L60.6337 45.0007L60.5213 45.1018C60.2887 45.3057 59.9647 45.5097 59.5605 45.706L59.5891 45.8452H59.5834C59.5682 46.1254 59.49 47.6123 59.3585 49.4042L59.3413 49.6367L59.5624 49.5662C60.2144 49.3603 60.9273 49.2574 61.6841 49.2574Z" fill="#2E3182"/>
<path d="M29.6724 54.9399C29.8878 54.9399 30.1013 54.9456 30.3072 54.9551C30.8886 54.9856 31.4338 55.0561 31.9256 55.1686L32.1525 55.2201L32.1181 54.9913C31.9561 53.9334 31.7998 52.496 31.6511 50.7194L31.6435 50.6222L31.5558 50.586C30.8829 50.3039 30.1147 50.1609 29.274 50.1609C28.3933 50.1609 27.6022 50.3172 27.0952 50.4506L27.0113 50.4716L25.3834 55.4984L25.656 55.4355C26.632 55.2086 28.1207 54.9399 29.6724 54.9399Z" fill="#2E3182"/>
<path d="M61.278 54.9399C61.4572 54.9399 61.6345 54.9437 61.8118 54.9494C63.1633 55.0009 64.4253 55.2353 65.2469 55.424L65.5194 55.485L63.8915 50.4602L63.8076 50.4373C63.3101 50.3115 62.5362 50.1609 61.6745 50.1609C60.8148 50.1609 60.0314 50.3096 59.3489 50.605L59.2612 50.6413L59.2536 50.7366C59.1049 52.5113 58.9486 53.9467 58.7885 55.0009L58.7523 55.2334L58.981 55.18C59.6634 55.0199 60.4355 54.9399 61.278 54.9399Z" fill="#2E3182"/>
<path d="M65.8473 56.5049L65.7653 56.482C65.0467 56.2876 63.1671 55.8396 61.2551 55.8396C61.1045 55.8396 60.9559 55.8415 60.8072 55.8472C59.9894 55.8796 59.2612 56.0016 58.6379 56.2094L58.5578 56.2361L58.5349 56.32C58.4949 56.482 58.453 56.6173 58.4129 56.726C58.2185 57.254 57.7438 58.3139 57.1758 59.492L57.0385 59.7779L57.3492 59.7169C57.6638 59.654 58.0069 59.5949 58.3691 59.5396C60.0123 59.2918 62.0176 59.1488 63.8724 59.1488C64.8389 59.1488 65.7501 59.1889 66.5088 59.2613L66.749 59.2861L65.8473 56.5049Z" fill="#2E3182"/>
<path d="M32.4918 56.726C32.4498 56.6116 32.4079 56.4705 32.3679 56.3047L32.345 56.2189L32.263 56.1922C31.9599 56.095 31.6301 56.0149 31.2813 55.9577C30.7952 55.8777 30.2595 55.8376 29.6877 55.8376C27.7509 55.8376 25.8599 56.2971 25.1375 56.4934L25.0555 56.5163L24.1595 59.2841L24.3997 59.2594C25.1775 59.1793 26.0677 59.1393 27.0437 59.1393C29.0262 59.1393 31.165 59.307 32.9111 59.6006C33.1342 59.6368 33.3496 59.6768 33.5593 59.7169L33.87 59.7798L33.7327 59.4938C33.1628 58.3158 32.6881 57.2559 32.4918 56.726Z" fill="#2E3182"/>
<path d="M45.2331 40.7441C44.7814 40.7441 44.4135 41.112 44.4135 41.5638C44.4135 42.0156 44.7814 42.3835 45.2331 42.3835C45.6849 42.3835 46.0528 42.0156 46.0528 41.5638C46.0528 41.3446 45.967 41.1387 45.8126 40.9843C45.6582 40.8299 45.4524 40.7441 45.2331 40.7441Z" fill="#2E3182"/>
<path d="M29.4551 38.4927C29.6629 38.7291 29.8669 38.975 30.0613 39.2324C29.8497 38.9941 29.6496 38.7463 29.4551 38.4927ZM32.2687 40.5096C32.6938 40.1226 33.0999 39.7852 33.4182 39.5297C33.2638 39.1809 32.9969 38.6281 32.6119 37.98C31.4815 37.1202 30.1757 36.4531 28.8222 36.1423C30.0785 37.2441 31.4071 38.712 32.2687 40.5096ZM31.3442 41.4131C31.2165 41.1119 31.0716 40.8222 30.9153 40.5381C30.3606 40.3837 29.7963 40.2293 29.2283 40.094C29.2607 40.1607 29.2931 40.2255 29.3236 40.2903C29.3579 40.3723 29.3865 40.4524 29.4151 40.5286C29.4704 40.6849 29.5199 40.8241 29.5562 40.9518C29.5867 41.0833 29.6076 41.1977 29.6248 41.2911C29.6591 41.4779 29.6705 41.5847 29.6705 41.5847C29.6705 41.5847 29.5981 41.5008 29.4856 41.3502C29.4303 41.274 29.3617 41.1844 29.2912 41.0795C29.213 40.9785 29.1253 40.866 29.0281 40.7421C28.9824 40.6792 28.9347 40.6144 28.8852 40.5477C28.8318 40.4848 28.7784 40.4181 28.7212 40.3494C28.6126 40.2122 28.5001 40.0673 28.3724 39.9243C28.3667 39.9186 28.3609 39.9129 28.3552 39.9053C27.7948 39.7985 27.2324 39.7223 26.6682 39.6918C27.7833 40.7841 28.9442 42.1699 29.7944 43.8112C29.9584 43.0601 30.6008 42.1966 31.3442 41.4131ZM27.6861 46.1463L28.9481 44.8482C27.9587 42.7075 26.3232 40.9671 24.9487 39.7718C24.7314 39.8042 24.516 39.8405 24.3006 39.8824C24.4169 39.9129 24.5446 39.9586 24.6819 40.0177C24.8191 40.0768 24.9621 40.1512 25.1089 40.2408C25.2537 40.3304 25.4024 40.4314 25.5473 40.5458C25.6197 40.603 25.6922 40.664 25.7627 40.7269C25.8332 40.7879 25.9038 40.8527 25.9724 40.9213C26.1116 41.0528 26.2412 41.1977 26.3689 41.3445C26.4928 41.4932 26.6148 41.6438 26.7235 41.7982C26.8359 41.9526 26.937 42.1089 27.0304 42.2633C27.2172 42.5702 27.3659 42.8733 27.4783 43.1383C27.5908 43.4051 27.6652 43.6358 27.709 43.8016C27.7547 43.9656 27.77 44.0628 27.77 44.0628C27.77 44.0628 27.6957 43.9961 27.5775 43.876C27.4593 43.7559 27.2934 43.5843 27.1066 43.3746C26.7273 42.9553 26.2583 42.3891 25.7894 41.8363C25.5549 41.5599 25.3186 41.2873 25.0917 41.0414C24.8649 40.7936 24.6437 40.5706 24.4455 40.3876C24.3959 40.338 24.3464 40.298 24.3006 40.256C24.253 40.2141 24.2072 40.176 24.1653 40.1416C24.0776 40.0692 24.0013 40.0101 23.9346 39.9625C23.9327 39.9606 23.9308 39.9586 23.927 39.9567C23.4257 40.0616 22.9262 40.1779 22.4249 40.277L27.6537 46.1692C27.6652 46.1616 27.6766 46.154 27.6861 46.1463ZM62.2369 36.3577C60.792 37.0535 59.124 38.0143 57.7477 38.9826C57.6409 39.1961 57.5533 39.3811 57.4884 39.5297C57.8754 39.8405 58.392 40.2713 58.9143 40.7669C59.7168 38.9693 60.994 37.4881 62.2369 36.3577ZM61.8271 40.8012C61.7775 40.8679 61.7298 40.9327 61.6841 40.9937C61.5888 41.1176 61.5011 41.232 61.4229 41.3331C61.3505 41.4379 61.2838 41.5275 61.2285 41.6037C61.116 41.7543 61.0436 41.8382 61.0436 41.8382C61.0436 41.8382 61.0531 41.7315 61.0893 41.5446C61.1065 41.4512 61.1275 41.3369 61.158 41.2053C61.1923 41.0776 61.2438 40.9385 61.299 40.7821C61.3257 40.7059 61.3562 40.6258 61.3886 40.5439C61.4287 40.4638 61.4668 40.3818 61.5087 40.298C61.5926 40.1283 61.6822 39.951 61.7966 39.7814C61.8252 39.7375 61.8557 39.6918 61.8862 39.646C61.5545 39.688 61.2209 39.7146 60.8892 39.7261C60.4717 40.338 60.1095 41.0014 59.8369 41.7124C60.5213 42.4825 61.0722 43.3041 61.1446 44.0094L61.3181 44.1886C62.4447 41.8325 64.2328 39.9682 65.7006 38.7177C64.8142 38.9979 63.903 39.2705 62.9765 39.463L62.927 39.5145C62.8622 39.5907 62.7935 39.6632 62.7268 39.7375C62.662 39.8138 62.5896 39.8824 62.5286 39.9567C62.4657 40.033 62.4047 40.1073 62.3418 40.1779C62.214 40.3189 62.1016 40.4657 61.9929 40.603C61.9357 40.6716 61.8804 40.7364 61.8271 40.8012ZM68.0605 38.4336L69.0022 39.6918L63.2472 46.1749L62.2293 45.1265C63.6533 41.8039 66.6785 39.402 68.0605 38.4336ZM65.4184 40.9213C65.2793 41.0528 65.1497 41.1996 65.02 41.3445C64.898 41.4932 64.776 41.6438 64.6674 41.8001C64.5549 41.9526 64.4539 42.1089 64.3605 42.2633C64.1718 42.5721 64.0231 42.8733 63.9106 43.1402C63.7981 43.4051 63.7238 43.6358 63.6799 43.8016C63.6342 43.9656 63.6208 44.0647 63.6208 44.0647C63.6208 44.0647 63.6933 43.9961 63.8115 43.876C63.9316 43.7559 64.0955 43.5843 64.2842 43.3746C64.6617 42.9572 65.1306 42.3891 65.5995 41.8363C65.834 41.5599 66.0704 41.2892 66.2972 41.0414C66.526 40.7936 66.7452 40.5706 66.9453 40.3876C66.993 40.338 67.0426 40.298 67.0902 40.2579C67.136 40.2141 67.1817 40.176 67.2256 40.1416C67.3113 40.0711 67.3876 40.0101 67.4543 39.9625C67.5191 39.9129 67.5801 39.8767 67.6163 39.85C67.6545 39.8233 67.6735 39.81 67.6735 39.81C67.6735 39.81 67.6488 39.81 67.603 39.81C67.5573 39.8138 67.4905 39.8061 67.4048 39.8214C67.319 39.8328 67.2103 39.8481 67.094 39.8824C66.9758 39.9129 66.8462 39.9586 66.709 40.0177C66.5698 40.0787 66.4268 40.1531 66.2801 40.2408C66.1352 40.3304 65.9865 40.4314 65.8435 40.5477C65.7692 40.603 65.6987 40.664 65.6281 40.7269C65.5557 40.7879 65.4871 40.8527 65.4184 40.9213ZM21.548 55.0695C21.1877 55.4622 20.7417 55.8244 20.206 55.9387C20.0764 55.9673 19.9487 55.9807 19.8209 55.9845C20.572 57.5724 21.6624 59.2651 22.9205 59.675L24.8954 53.5731C24.2987 53.3539 23.7573 53.0069 23.277 52.5952C22.6632 53.3901 22.2342 54.328 21.548 55.0695ZM26.9541 47.2119L26.3899 46.5771C26.2088 46.7258 26.0582 46.9146 25.8981 47.0823C24.8725 48.1593 23.6925 48.9581 22.4134 49.6557C23.033 50.668 24.0223 51.9432 25.269 52.416L26.0982 49.854L26.0277 49.6748C26.0429 49.6691 26.0944 49.65 26.1745 49.6214L26.9541 47.2119ZM17.8137 61.0189C17.7565 61.0151 17.6993 61.0094 17.6421 61.0056C18.4027 62.9194 20.2918 64.2138 21.2678 64.778L22.5469 60.8302C22.0093 60.6548 21.5137 60.3403 21.0619 59.9342C20.1297 60.6396 19.0032 61.0875 17.8137 61.0189ZM71.1181 56.707C70.4853 56.6174 69.8867 56.3371 69.3701 55.9445C68.6667 55.4088 67.9518 54.7054 67.5458 53.9086C67.4143 53.6493 67.3247 53.3863 67.3075 53.127C66.9187 53.371 66.4974 53.5655 66.0475 53.6856L68.0128 59.7551C69.2328 59.614 70.3156 58.2072 71.1181 56.707ZM68.295 50.5269C67.5248 50.3553 66.8233 50.0008 66.1905 49.4842C65.468 48.8971 64.8294 48.2165 64.0936 47.6504L65.672 52.5266C66.7338 52.2692 67.6278 51.4095 68.295 50.5269ZM69.9229 60.1973C69.4559 60.5576 68.945 60.8168 68.3903 60.9255L69.6389 64.778C70.5005 64.2805 72.077 63.2092 72.9558 61.6461C71.8253 61.4802 70.7273 60.9541 69.9229 60.1973ZM53.1879 66.9073L56.0835 71.753C54.5528 72.7176 49.6156 75.5941 45.2332 75.5941C40.8736 75.5941 36.2509 72.7347 34.8155 71.7682L37.7187 66.9073C39.0626 68.7907 39.6536 68.8669 39.9586 68.9051C41.0242 69.0366 41.9353 68.8879 42.8999 68.7316C43.6224 68.6134 44.3677 68.4933 45.2141 68.4933C46.0509 68.4933 46.8878 68.6115 47.6979 68.7278C48.5157 68.8441 49.2992 68.9546 50.0808 68.9546C50.3686 68.9546 50.6583 68.9394 50.9481 68.9051C51.2531 68.8669 51.844 68.7907 53.1879 66.9073ZM48.5691 70.2013C46.0605 68.377 42.3357 70.2013 42.3357 70.2013L45.46 74.3531L48.5691 70.2013ZM57.4217 56.36C57.3321 56.5983 57.1777 56.97 56.9718 57.4294C54.6767 58.4226 52.374 56.9243 50.8928 55.6928C51.0282 54.6177 50.2256 53.8876 49.5127 53.2395C48.7826 52.578 48.0925 51.9528 48.0925 50.9672H46.8763C46.8763 50.9939 46.8783 51.0187 46.8802 51.0454C46.5942 51.0092 46.0471 50.9463 45.4524 50.9081C44.8595 50.9463 44.3124 51.0092 44.0265 51.0454C44.0284 51.0187 44.0303 50.9939 44.0303 50.9672H42.8141C42.8141 51.9528 42.1241 52.578 41.394 53.2395C40.681 53.8876 39.8785 54.6177 40.0138 55.6928C38.5327 56.9243 36.2299 58.4207 33.9348 57.4294C33.7289 56.97 33.5726 56.5983 33.4849 56.36C32.9817 54.9971 32.5642 49.1163 32.4098 46.3446C32.8521 46.5028 33.3496 46.6534 33.9024 46.7983L34.0644 49.8025C34.0644 49.8025 36.7751 51.9127 38.4259 51.9833C39.9262 52.0462 42.7989 50.0751 43.5957 48.0392C44.139 48.0545 44.6842 48.064 45.2332 48.064C45.9213 48.064 46.6133 48.0507 47.3053 48.024C48.0925 50.0656 50.9748 52.0462 52.4807 51.9833C54.1315 51.9127 56.8403 49.8025 56.8403 49.8025L57.0062 46.7506C57.5799 46.6019 58.0756 46.4532 58.4988 46.3065C58.3463 49.061 57.9269 54.9913 57.4217 56.36ZM39.2208 53.5788C37.7282 55.6757 34.2798 54.551 34.2798 54.551C34.2798 54.551 34.8879 55.8511 36.4968 55.9711C38.1057 56.0931 38.8567 55.2086 39.2208 53.5788ZM40.1416 52.6371C40.1416 52.6371 40.0138 52.6371 39.8061 52.6524C39.7031 52.66 39.5811 52.6733 39.4439 52.6924C39.4115 52.6962 39.3752 52.7019 39.339 52.7057C39.3028 52.7096 39.2647 52.7096 39.2266 52.7134C39.1503 52.7172 39.0722 52.7229 38.9883 52.7286C38.9063 52.7362 38.8224 52.7439 38.7347 52.7515C38.6509 52.7648 38.5594 52.7667 38.4679 52.7667C38.3764 52.7686 38.283 52.7744 38.1896 52.7782C38.0942 52.7801 38.0008 52.7991 37.9036 52.7896C37.7092 52.7801 37.5109 52.7972 37.3127 52.782C37.1125 52.761 36.9086 52.7744 36.7084 52.7381C36.6093 52.7286 36.5082 52.721 36.4072 52.7115C36.3062 52.6962 36.2071 52.6791 36.1079 52.6638C35.9078 52.6428 35.7152 52.5914 35.5227 52.5628C35.4255 52.5475 35.3359 52.5151 35.2425 52.4999C35.1491 52.4789 35.0576 52.4617 34.9699 52.437C34.7926 52.3912 34.6192 52.3512 34.4628 52.3054C34.3027 52.2654 34.1578 52.2177 34.0244 52.1834C33.8891 52.1434 33.7728 52.1072 33.6756 52.0786C33.4754 52.0195 33.361 51.9833 33.361 51.9833C33.361 51.9833 33.3725 52.0138 33.3992 52.0633C33.4277 52.1129 33.4697 52.1872 33.5307 52.2749C33.5917 52.3645 33.6717 52.4617 33.7709 52.5761C33.8719 52.6829 33.9863 52.8049 34.1273 52.9211C34.1979 52.9783 34.2703 53.0412 34.3504 53.0984C34.4285 53.1575 34.5143 53.2128 34.602 53.2719C34.6878 53.3348 34.785 53.3786 34.8822 53.432C34.9794 53.4854 35.0805 53.5388 35.1872 53.5826C35.2921 53.6284 35.4026 53.6703 35.5151 53.7122C35.6257 53.758 35.7419 53.7866 35.862 53.8152C35.9802 53.8438 36.0984 53.88 36.2204 53.901C36.3443 53.9162 36.4682 53.9334 36.5902 53.9486C36.838 53.9829 37.0877 53.9677 37.3337 53.962C37.4557 53.9639 37.5757 53.941 37.6939 53.9219C37.8121 53.901 37.9284 53.8838 38.0428 53.859C38.1552 53.84 38.2639 53.8037 38.3687 53.7675C38.4755 53.7294 38.5784 53.697 38.6757 53.6589C38.8758 53.5941 39.0474 53.4854 39.2056 53.3977C39.3619 53.3043 39.5087 53.23 39.6192 53.127C39.7355 53.0336 39.8308 52.9478 39.909 52.8754C40.0615 52.7286 40.1416 52.6371 40.1416 52.6371ZM56.257 54.8827C56.257 54.8827 52.8105 56.0074 51.3179 53.9105C51.682 55.5403 52.4331 56.4248 54.0419 56.3028C55.6508 56.1827 56.257 54.8827 56.257 54.8827ZM57.3741 52.2749C57.4351 52.1872 57.477 52.1129 57.5056 52.0633C57.5342 52.0138 57.5437 51.9833 57.5437 51.9833C57.5437 51.9833 57.4293 52.0176 57.2292 52.0786C57.132 52.1072 57.0157 52.1415 56.8823 52.1815C56.7469 52.2177 56.6039 52.2654 56.4419 52.3035C56.2856 52.3512 56.1121 52.3912 55.9368 52.437C55.8491 52.4617 55.7557 52.4789 55.6623 52.498C55.5688 52.5151 55.4793 52.5475 55.382 52.5609C55.1895 52.5914 54.997 52.6428 54.7968 52.6638C54.6977 52.6791 54.5986 52.6943 54.4975 52.7096C54.3984 52.7191 54.2974 52.7286 54.1963 52.7381C53.9962 52.7744 53.7922 52.761 53.594 52.782C53.3938 52.7953 53.1956 52.7782 53.0011 52.7896C52.9039 52.7972 52.8105 52.7801 52.7152 52.7782C52.6218 52.7744 52.5284 52.7686 52.4369 52.7667C52.3454 52.7667 52.2558 52.7648 52.17 52.7515C52.0823 52.7439 51.9984 52.7362 51.9165 52.7286C51.8326 52.7229 51.7544 52.7172 51.6782 52.7115C51.6401 52.7096 51.6019 52.7096 51.5657 52.7057C51.5295 52.7 51.4933 52.6962 51.4609 52.6905C51.3236 52.6733 51.2016 52.66 51.0987 52.6524C50.8909 52.6371 50.7651 52.6371 50.7651 52.6371C50.7651 52.6371 50.8433 52.7286 50.9958 52.8735C51.0739 52.9478 51.1711 53.0317 51.2855 53.127C51.3961 53.2281 51.5428 53.3024 51.6992 53.3977C51.8593 53.4835 52.0289 53.5941 52.2291 53.6589C52.3263 53.6951 52.4293 53.7294 52.536 53.7656C52.6408 53.8018 52.7495 53.84 52.8639 53.8571C52.9763 53.8819 53.0926 53.901 53.2108 53.92C53.329 53.941 53.4491 53.962 53.573 53.9601C53.817 53.9677 54.0667 53.9829 54.3145 53.9486C54.4384 53.9315 54.5604 53.9162 54.6843 53.901C54.8063 53.88 54.9245 53.8438 55.0427 53.8152C55.1628 53.7866 55.2791 53.758 55.3897 53.7103C55.5021 53.6684 55.6127 53.6284 55.7175 53.5826C55.8243 53.5388 55.9253 53.4835 56.0225 53.432C56.1198 53.3767 56.217 53.3329 56.3028 53.27C56.3904 53.2109 56.4762 53.1556 56.5544 53.0984C56.6344 53.0412 56.7069 52.9783 56.7774 52.9192C56.9185 52.8049 57.0328 52.681 57.1339 52.5742C57.233 52.4617 57.3131 52.3645 57.3741 52.2749ZM31.4948 50.7309C29.884 50.0541 28.0807 50.3572 27.1352 50.6031L26.8474 51.4896C27.3964 51.724 27.8748 52.0938 28.2999 52.5094C28.9061 53.1041 29.4742 53.7466 30.0079 54.4061C30.1109 54.5357 30.2138 54.6654 30.3148 54.7969C30.8715 54.8255 31.4262 54.8922 31.9618 55.0142C31.775 53.7999 31.6187 52.2292 31.4948 50.7309ZM32.2135 56.3429C31.9066 56.2437 31.5844 56.1694 31.2546 56.1141C31.9371 57.1568 32.5242 58.2739 32.9378 59.4443C33.1609 59.4825 33.3782 59.5206 33.5898 59.5625C32.9836 58.3082 32.528 57.2807 32.345 56.7813C32.2992 56.6593 32.2554 56.5125 32.2135 56.3429ZM30.2862 45.2161L28.1741 47.3911L27.5698 49.2592C28.5935 49.0705 30.0003 48.9752 31.39 49.4022C31.2508 47.5226 31.1727 46.0034 31.165 45.8547L31.2375 45.8509C30.841 45.6469 30.5226 45.4353 30.2862 45.2161ZM63.3349 49.2497L62.7325 47.3911L60.6261 45.2199C60.405 45.4124 60.0886 45.6259 59.6292 45.849L59.7416 45.8547C59.734 46.0034 59.6539 47.5303 59.5148 49.4156C60.9006 48.979 62.3036 49.0648 63.3349 49.2497ZM58.5617 56.7813C58.3787 57.2807 57.9231 58.3063 57.3188 59.5625C57.6467 59.4977 57.9898 59.4386 58.3463 59.3833C59.063 58.1919 59.9666 57.0939 60.8129 56.0055C60.0752 56.0341 59.347 56.1389 58.6894 56.36C58.6474 56.5221 58.6055 56.6631 58.5617 56.7813ZM59.4118 50.7499C59.286 52.2463 59.1297 53.8152 58.9448 55.0256C59.8732 54.8083 60.8663 54.755 61.8175 54.7912C62.5076 54.0325 63.272 53.3367 64.0745 52.7115C64.1737 52.6352 64.2747 52.559 64.3795 52.4808L63.7676 50.5917C62.8031 50.3458 61.0074 50.0599 59.4118 50.7499Z" fill="black" fill-opacity="0.498"/>
<path d="M52.7819 31.5789C52.8715 31.983 52.9535 32.3852 53.024 32.7817C50.7117 33.5157 48.2755 33.935 45.8412 34.0189V32.7741C45.9194 32.7741 45.9956 32.776 46.0738 32.776C48.4547 32.776 50.7231 32.349 52.7819 31.5789ZM57.05 29.5259C57.0176 29.4687 56.9833 29.4115 56.949 29.3562C56.0206 30.0272 55.0084 30.6143 53.9295 31.1042C54.0305 31.5312 54.1201 31.9582 54.1982 32.3795C55.3973 31.9373 56.5677 31.4054 57.6752 30.7649C57.496 30.357 57.2902 29.9414 57.05 29.5259ZM37.8884 32.7322C39.4229 33.3841 41.0489 33.794 42.7207 33.9407C43.3536 33.996 43.9884 34.0265 44.625 34.0342V32.7227C42.3356 32.5549 40.174 31.9907 38.2315 31.11C38.098 31.6513 37.9856 32.1965 37.8884 32.7322ZM33.4277 29.9357C34.3103 30.6696 35.2387 31.3425 36.2337 31.9106C36.4015 32.0078 36.573 32.0993 36.7427 32.1889C36.8475 31.6475 36.9695 31.1004 37.1106 30.5552C36.0641 29.9872 35.0919 29.3257 34.2112 28.5823C33.9081 29.0283 33.6489 29.4839 33.4277 29.9357Z" fill="black" fill-opacity="0.498"/>
<path d="M76.225 58.7238C75.9771 53.4244 70.6187 45.8967 68.9316 43.7674L72.422 39.8329L64.8847 29.766L63.4874 30.2273C62.5438 30.5399 61.6345 30.9745 60.7748 31.5254C60.5022 30.6085 60.1515 29.7298 59.7283 28.8986C62.8259 25.9134 64.5244 22.0647 64.5244 18.0044C64.5244 14.0871 62.9155 10.3089 59.9971 7.36372L59.9818 7.34657L53.9695 2.07007L56.644 9.55782L56.6573 9.59023C57.761 12.2304 57.4636 17.1237 55.0541 20.7418C54.5642 21.4776 53.9962 22.1353 53.3633 22.7033C51.051 21.6053 48.3175 21.0487 45.2331 21.0487C42.6406 21.0487 40.3036 21.4395 38.2772 22.2134C37.8445 21.7654 37.448 21.2717 37.0954 20.7418C34.3275 16.5881 34.9241 11.9101 35.5246 9.49301C36.3538 6.15516 37.002 5.07813 37.0058 5.07241L38.1857 3.22716L36.1689 4.08497C36.0946 4.11547 34.2951 4.89894 32.122 7.39422C29.9488 9.89141 27.6251 13.9879 27.6251 18.0044C27.6251 21.5901 28.9938 25.0938 31.4891 27.9245C30.8562 29.0111 30.3663 30.1949 30.0251 31.4587C29.1959 30.9383 28.3228 30.5266 27.4192 30.2273L26.022 29.766L18.4846 39.8348L21.9693 43.7598C19.1595 47.1529 15.0515 54.4081 14.6836 58.699C14.1899 64.4769 20.5148 67.3973 20.7855 67.5193L22.8671 68.4571L25.0517 61.7052C25.6445 61.6594 26.3155 61.6366 27.0246 61.6366C29.2569 61.6366 31.6244 61.8539 33.3057 62.2123C33.6336 62.847 33.9615 63.4609 34.2798 64.0404C34.6287 64.6732 34.968 65.2623 35.2901 65.7998L31.2966 72.485L32.7834 73.5869C33.0408 73.7775 39.1427 78.2476 45.2331 78.2476C51.2855 78.2476 57.7915 73.8156 58.066 73.6269L59.6444 72.5403L55.6165 65.7998C55.9386 65.2642 56.278 64.6732 56.6268 64.0404C56.9471 63.4589 57.2749 62.8451 57.6009 62.2104C59.2631 61.8596 61.6326 61.6442 63.8858 61.6442C64.5987 61.6442 65.2716 61.6671 65.8569 61.709L68.0395 68.4552L70.1364 67.5116C71.1982 67.0389 76.4899 64.393 76.225 58.7238ZM69.3072 48.9124C69.0822 49.3451 68.7391 49.9398 68.295 50.5269C67.6278 51.4095 66.7337 52.2693 65.672 52.5266L64.0955 47.6504L63.9525 47.212L66.2019 44.6786C67.0426 45.544 68.1787 47.0957 69.3072 48.9124ZM55.485 45.8604C52.4998 46.4971 48.8588 46.8479 45.2331 46.8479C41.6075 46.8479 38.0275 46.4933 35.1529 45.8509C31.9447 45.1361 31.0354 44.3755 30.9706 44.1734C30.9344 43.9199 31.1803 43.4853 31.5958 42.9706C32.7815 43.8284 36.209 45.584 44.3887 45.584C53.1612 45.584 57.8316 43.6073 59.2403 42.8886C59.6978 43.4395 59.9742 43.9027 59.9399 44.1582C59.8598 44.3717 58.8705 45.1399 55.485 45.8604ZM55.8891 47.456C55.8891 47.456 52.4502 52.7477 49.9606 49.1792L55.8891 47.456ZM41.2986 49.1792C38.8091 52.7477 35.3702 47.456 35.3702 47.456L41.2986 49.1792ZM31.39 49.4023C30.0003 48.9753 28.5935 49.0706 27.5698 49.2593L28.1741 47.3912L30.2862 45.2161C30.5226 45.4354 30.841 45.6469 31.2375 45.8509L31.165 45.8547C31.1726 46.0034 31.2508 47.5227 31.39 49.4023ZM31.4948 50.7309C31.6187 52.2292 31.775 53.8 31.9618 55.0143C31.4262 54.8942 30.8715 54.8255 30.3148 54.7969C28.5249 54.7074 26.7311 55.0238 25.6216 55.2811L26.8474 51.4896L27.1352 50.6032C28.0807 50.3573 29.884 50.0542 31.4948 50.7309ZM45.2331 39.4135C50.0293 39.4135 55.5174 40.1627 56.5048 40.3018C57.151 40.807 57.8106 41.3903 58.3767 41.9526C56.7717 42.6961 52.2825 44.3698 44.3887 44.3698C36.6798 44.3698 33.4697 42.778 32.4155 42.0613C33.0026 41.4684 33.7041 40.847 34.4056 40.2999C35.3416 40.1569 40.4523 39.4135 45.2331 39.4135ZM32.1391 35.2007C32.1544 34.5087 32.2935 32.2555 33.4277 29.9356C33.6489 29.4839 33.9081 29.0283 34.2112 28.5822C35.0919 29.3256 36.0641 29.9871 37.1106 30.5552C36.9696 31.1004 36.8476 31.6474 36.7427 32.1888C36.1937 35.0349 36.1175 37.6731 36.1156 38.8378C35.4369 38.9236 34.8956 38.9999 34.5391 39.0513C34.2112 38.2945 33.4468 36.739 32.1391 35.2007ZM37.3356 38.6929C37.3489 37.5606 37.4366 35.2388 37.8884 32.7321C37.9856 32.1964 38.0981 31.6532 38.2315 31.1099C40.174 31.9906 42.3356 32.5548 44.6251 32.7226V38.2011C41.9982 38.2335 39.3333 38.468 37.3356 38.6929ZM45.8412 38.2011V32.774C45.9194 32.774 45.9956 32.7759 46.0738 32.7759C48.4547 32.7759 50.7231 32.3489 52.7819 31.5788C52.8715 31.981 52.9516 32.3833 53.024 32.7817C53.472 35.2865 53.5577 37.5988 53.5692 38.7139C51.4437 38.4833 48.571 38.2354 45.8412 38.2011ZM53.9295 31.1042C55.0084 30.6143 56.0206 30.0271 56.949 29.3561C56.9833 29.4114 57.0176 29.4686 57.05 29.5258C57.2902 29.9394 57.4961 30.3569 57.6752 30.7649C58.5445 32.7664 58.7237 34.5888 58.7599 35.2102C57.4541 36.7505 56.6916 38.3022 56.3656 39.0551C56.0092 39.0075 55.4678 38.935 54.7892 38.855C54.7873 37.7227 54.7186 35.1645 54.1982 32.3794C54.1201 31.9582 54.0305 31.5312 53.9295 31.1042ZM59.6291 45.849C60.0886 45.626 60.405 45.4144 60.6261 45.2199L62.7325 47.3912L63.3349 49.2498C62.3036 49.0649 60.9006 48.9791 59.5167 49.4156C59.6558 47.5303 59.734 46.0034 59.7416 45.8547L59.6291 45.849ZM59.4118 50.75C61.0074 50.0599 62.8031 50.3459 63.7676 50.5918L64.3795 52.4809L65.2831 55.2697C64.4196 55.0734 63.1614 54.8427 61.8175 54.7912C60.8663 54.755 59.8731 54.8084 58.9429 55.0257C59.1297 53.8152 59.286 52.2464 59.4118 50.75ZM69.0022 39.6918L63.2472 46.175L62.2293 45.1265C63.6532 41.802 66.6785 39.4021 68.0605 38.4337L69.0022 39.6918ZM67.3285 37.4577C66.8958 37.7589 66.3296 38.1821 65.7006 38.7177C64.2327 39.9682 62.4447 41.8325 61.3181 44.1887L61.1446 44.0095C61.0722 43.3042 60.5213 42.4826 59.8369 41.7124C60.1095 41.0014 60.4717 40.338 60.8892 39.7261C62.3875 37.5206 64.5759 35.9727 65.6948 35.275L67.3285 37.4577ZM63.9106 32.8922L64.9609 34.2933C64.2709 34.726 63.2682 35.4199 62.2369 36.3578C60.994 37.4882 59.7168 38.9694 58.9143 40.7669C58.392 40.2713 57.8754 39.8405 57.4884 39.5298C57.5551 39.3811 57.6409 39.1962 57.7477 38.9827C58.5426 37.3853 60.4927 34.2094 63.9106 32.8922ZM52.3911 25.1586C52.1605 25.2882 51.9222 25.414 51.6725 25.5303C51.4418 25.1872 51.1921 24.8593 50.9252 24.5543C51.4361 24.7297 51.926 24.9298 52.3911 25.1586ZM45.8412 23.7098C46.6666 23.7327 47.4558 23.7975 48.2069 23.9081C49.1257 24.3846 49.8882 25.1128 50.5211 25.9973C49.2572 26.4319 47.7856 26.6988 46.0738 26.6988C45.9956 26.6988 45.9194 26.695 45.8412 26.695V23.7098ZM42.8008 23.8528L42.7951 23.8414C43.3822 23.7727 43.9941 23.7289 44.6251 23.7117V26.6321C43.1001 26.4872 41.7905 26.1212 40.6696 25.618C41.2681 24.8726 41.9716 24.2626 42.8008 23.8528ZM40.1358 24.3789C39.9395 24.5924 39.7527 24.8174 39.5735 25.0537C39.4057 24.9527 39.2437 24.8517 39.0855 24.7468C39.4248 24.6115 39.7736 24.4876 40.1358 24.3789ZM30.2786 18.0044C30.2786 15.6369 31.003 13.3227 32.3526 11.2906C31.939 14.5427 32.5947 18.7707 34.886 22.2115C36.6188 24.8135 39.9662 27.9131 46.0738 27.9131C52.1814 27.9131 55.5307 24.8135 57.2616 22.2115C59.5548 18.7707 60.2106 14.5427 59.795 11.2906C61.1465 13.3227 61.8709 15.6369 61.8709 18.0044C61.8709 25.4788 54.7854 31.5617 46.0738 31.5617C37.3641 31.5617 30.2786 25.4788 30.2786 18.0044ZM26.9961 32.8922C29.7944 33.9712 31.6092 36.2968 32.6119 37.98C32.9969 38.6281 33.2638 39.1809 33.4182 39.5298C33.0999 39.7852 32.6938 40.1226 32.2687 40.5096C31.4071 38.712 30.0785 37.2442 28.8222 36.1424C27.7338 35.1874 26.7006 34.5087 26.0696 34.1275L26.9961 32.8922ZM25.3357 35.1092C26.1497 35.5934 27.9358 36.7657 29.4551 38.4928C29.6629 38.7292 29.8669 38.9751 30.0613 39.2324C30.3701 39.6423 30.6599 40.0788 30.9153 40.5382C31.0716 40.8203 31.2146 41.112 31.3442 41.4132C30.6008 42.1966 29.9565 43.0602 29.7944 43.8112C28.9423 42.1699 27.7833 40.7841 26.6682 39.6918C25.4901 38.5404 24.3635 37.7169 23.7116 37.2785L25.3357 35.1092ZM21.9045 39.6918L22.9796 38.2564C23.4199 38.5519 24.1386 39.0685 24.9487 39.7719C26.3231 40.9671 27.9587 42.7075 28.9481 44.8482L27.6861 46.1464L27.6594 46.175L27.6537 46.1693L22.4249 40.277L21.9045 39.6918ZM24.7047 44.6786L26.3899 46.5772L26.9541 47.212L26.1745 49.6215C26.0944 49.6501 26.0429 49.6691 26.0277 49.6749L26.0982 49.854L25.269 52.416C24.0223 51.9433 23.033 50.668 22.4134 49.6558C22.1408 49.2097 21.9388 48.817 21.8168 48.5635C22.8728 46.8974 23.9175 45.4887 24.7047 44.6786ZM21.2678 64.7781C20.2918 64.2138 18.4027 62.9195 17.6421 61.0056C17.3924 60.3765 17.2627 59.6827 17.3276 58.9259C17.4114 57.948 17.7526 56.7451 18.254 55.4508C18.8011 56.8176 19.7447 58.7524 21.0619 59.9343C21.5137 60.3403 22.0093 60.6549 22.5469 60.8302L21.2678 64.7781ZM19.8209 55.9845C19.4321 55.1649 19.1347 54.3757 18.9517 53.8057C19.5712 52.4561 20.3089 51.0702 21.0752 49.7778C21.5289 50.5956 22.2724 51.7336 23.277 52.5952C23.7573 53.007 24.2987 53.3539 24.8954 53.5731L22.9205 59.675C21.6624 59.2652 20.572 57.5724 19.8209 55.9845ZM32.9378 59.4444C30.2958 59.0021 26.8283 58.8534 24.3845 59.1013L25.1775 56.646C26.0811 56.4001 28.8871 55.7253 31.2546 56.1142C31.5844 56.1694 31.9066 56.2438 32.2135 56.3429C32.2554 56.5126 32.2992 56.6594 32.345 56.7814C32.528 57.2808 32.9836 58.3083 33.5898 59.5626C33.3782 59.5206 33.1609 59.4806 32.9378 59.4444ZM56.0835 71.753C54.5528 72.7176 49.6156 75.5941 45.2331 75.5941C40.8736 75.5941 36.2509 72.7348 34.8155 71.7683L37.7187 66.9074C39.0626 68.7907 39.6536 68.867 39.9586 68.9051C41.0241 69.0366 41.9353 68.8879 42.8999 68.7316C43.6224 68.6134 44.3677 68.4934 45.2141 68.4934C46.0509 68.4934 46.8878 68.6115 47.696 68.7278C48.5138 68.8441 49.2992 68.9547 50.0807 68.9547C50.3686 68.9547 50.6583 68.9394 50.9481 68.9051C51.2531 68.867 51.844 68.7907 53.1879 66.9074L56.0835 71.753ZM55.7728 59.9476C55.7499 59.9553 55.7232 59.9629 55.7004 59.9705L55.7251 60.0449C55.2962 60.9027 54.8216 61.8139 54.3412 62.6907C51.722 67.4544 50.8299 67.6908 50.7975 67.6984C49.8863 67.8109 48.9065 67.6718 47.8676 67.5231C47.0174 67.403 46.1367 67.2772 45.2122 67.2772C44.2686 67.2772 43.4737 67.4068 42.7055 67.5307C41.7905 67.6794 41.0013 67.809 40.113 67.6984C40.0767 67.6908 39.1846 67.4544 36.5654 62.6907C35.5284 60.8016 34.5257 58.7467 33.9348 57.4295C33.7289 56.9701 33.5726 56.5984 33.4849 56.3601C32.9817 54.9971 32.5642 49.1163 32.4098 46.3446C32.8521 46.5029 33.3496 46.6534 33.9024 46.7983L34.0644 49.8026C34.0644 49.8026 36.7751 51.9128 38.4259 51.9833C39.9261 52.0462 42.7989 50.0752 43.5957 48.0393C44.139 48.0545 44.6841 48.0641 45.2331 48.0641C45.9213 48.0641 46.6133 48.0507 47.3052 48.024C48.0925 50.0656 50.9748 52.0462 52.4807 51.9833C54.1315 51.9128 56.8403 49.8026 56.8403 49.8026L57.0061 46.7507C57.5799 46.602 58.0756 46.4533 58.4987 46.3065C58.3462 49.061 57.9269 54.9914 57.4217 56.3601C57.3321 56.5984 57.1777 56.9701 56.9699 57.4295C56.6649 58.1119 56.2494 58.9926 55.7728 59.9476ZM58.3462 59.3834C57.9917 59.4387 57.6466 59.4978 57.3188 59.5607C57.9231 58.3064 58.3786 57.2789 58.5616 56.7814C58.6055 56.6632 58.6474 56.5221 58.6894 56.3582C59.347 56.1389 60.0752 56.0341 60.8129 56.0055C62.8412 55.9274 64.9228 56.4192 65.7234 56.6346L66.5241 59.1051C64.3033 58.8878 61.0074 58.9812 58.3462 59.3834ZM68.0128 59.7551L66.0475 53.6856C66.4974 53.5655 66.9186 53.3711 67.3075 53.1271C68.5313 52.355 69.4521 51.0931 70.0316 50.1171C70.8188 51.4724 71.5699 52.9174 72.178 54.3051C71.9302 54.9971 71.568 55.8664 71.1181 56.707C70.3156 58.2072 69.2328 59.614 68.0128 59.7551ZM72.9557 61.6461C72.077 63.2092 70.5005 64.2805 69.6389 64.7781L68.3903 60.9255C68.945 60.8169 69.4559 60.5576 69.9229 60.1974C71.2458 59.1794 72.2256 57.3742 72.8395 55.9483C73.2379 57.052 73.5047 58.0738 73.5791 58.924C73.6668 59.9514 73.398 60.8607 72.9557 61.6461ZM41.394 53.2395C42.1241 52.5781 42.8141 51.9528 42.8141 50.9673H44.0303C44.0303 50.994 44.0284 51.0188 44.0284 51.0454C43.9922 52.5209 43.0086 53.4187 42.2117 54.1393C41.5198 54.7684 41.1309 55.1477 41.2319 55.6109C41.2986 55.9197 41.4321 56.1332 41.6399 56.2667C42.0287 56.5145 42.6235 56.4535 42.8217 56.4077L43.3441 56.2895L43.8492 57.6716H47.0574L47.5626 56.2838L48.0887 56.4096C48.2831 56.4535 48.8779 56.5145 49.2668 56.2667C49.4746 56.1332 49.6099 55.9197 49.6747 55.6109C49.7757 55.1477 49.3888 54.7684 48.6949 54.1393C47.9 53.4187 46.9145 52.5209 46.8801 51.0454C46.8782 51.0188 46.8763 50.994 46.8763 50.9673H48.0925C48.0925 51.9528 48.7826 52.5781 49.5127 53.2395C50.2256 53.8877 51.0281 54.6178 50.8928 55.6929C50.8852 55.7501 50.8776 55.8073 50.8642 55.8664C50.7289 56.4954 50.3991 56.9891 49.9111 57.2979C49.3831 57.6315 48.7807 57.6811 48.3556 57.662L47.9114 58.8878H42.9971L42.5511 57.662C42.126 57.6811 41.5236 57.6315 40.9956 57.2979C40.5076 56.9891 40.1778 56.4954 40.0424 55.8664C40.0291 55.8073 40.0215 55.7501 40.0138 55.691C39.8785 54.6178 40.681 53.8877 41.394 53.2395ZM50.218 63.4933C48.5748 64.0213 46.6686 63.5257 45.2179 63.5257C43.7653 63.5257 42.3318 64.0213 40.6886 63.4933C38.5308 62.7975 37.3661 60.3632 39.7946 59.6979C42.2613 59.0212 42.797 60.3632 45.2179 60.3632C47.6369 60.3632 48.6434 59.0212 51.112 59.6979C53.5406 60.3632 52.3759 62.7975 50.218 63.4933ZM45.2331 43.4414C46.2682 43.4414 47.1108 42.5989 47.1108 41.5638C47.1108 40.5287 46.2682 39.6861 45.2331 39.6861C44.1981 39.6861 43.3555 40.5287 43.3555 41.5638C43.3555 42.5989 44.1981 43.4414 45.2331 43.4414ZM45.2331 40.9023C45.5972 40.9023 45.8946 41.1997 45.8946 41.5638C45.8946 41.9298 45.5972 42.2252 45.2331 42.2252C44.8671 42.2252 44.5717 41.9298 44.5717 41.5638C44.5717 41.1997 44.8671 40.9023 45.2331 40.9023ZM48.5691 66.3545C48.5691 66.3545 47.6274 65.6645 45.9709 65.5234C44.3124 65.3843 42.3356 66.2325 42.3356 66.2325C42.3356 66.2325 45.9709 61.6251 48.5691 66.3545ZM38.6756 53.6589C38.5784 53.697 38.4755 53.7294 38.3687 53.7657C38.2639 53.8038 38.1552 53.84 38.0428 53.8591C37.9284 53.8819 37.8121 53.901 37.6939 53.9201C37.5757 53.941 37.4556 53.962 37.3336 53.9601C37.0877 53.9677 36.838 53.983 36.5902 53.9487C36.4663 53.9315 36.3443 53.9163 36.2204 53.901C36.0984 53.88 35.9802 53.8438 35.862 53.8152C35.7438 53.7866 35.6256 53.758 35.5151 53.7104C35.4026 53.6704 35.2921 53.6284 35.1872 53.5827C35.0805 53.5388 34.9794 53.4854 34.8822 53.4321C34.785 53.3768 34.6878 53.3329 34.602 53.27C34.5143 53.2109 34.4285 53.1557 34.3504 53.0985C34.2703 53.0413 34.1979 52.9784 34.1273 52.9193C33.9863 52.8049 33.8719 52.681 33.7709 52.5743C33.6717 52.4618 33.5917 52.3627 33.5307 52.2731C33.4697 52.1873 33.4277 52.1129 33.3991 52.0615C33.3725 52.0119 33.361 51.9833 33.361 51.9833C33.361 51.9833 33.4754 52.0176 33.6756 52.0786C33.7728 52.1072 33.8891 52.1415 34.0244 52.1816C34.1578 52.2178 34.3027 52.2654 34.4628 52.3036C34.6191 52.3512 34.7926 52.3913 34.9699 52.437C35.0576 52.4618 35.1491 52.4789 35.2425 52.498C35.3359 52.5152 35.4255 52.5476 35.5227 52.5609C35.7152 52.5914 35.9078 52.641 36.1079 52.6639C36.2071 52.6791 36.3062 52.6944 36.4072 52.7096C36.5082 52.7191 36.6093 52.7287 36.7084 52.7382C36.9086 52.7744 37.1125 52.7611 37.3127 52.782C37.5109 52.7954 37.7092 52.7782 37.9036 52.7897C38.0008 52.7992 38.0942 52.7801 38.1896 52.7782C38.283 52.7744 38.3764 52.7687 38.4679 52.7668C38.5594 52.7668 38.6509 52.7649 38.7347 52.7515C38.8224 52.7439 38.9063 52.7363 38.9883 52.7287C39.0721 52.7229 39.1503 52.7172 39.2266 52.7115C39.2647 52.7096 39.3028 52.7096 39.339 52.7058C39.3752 52.7001 39.4115 52.6963 39.4439 52.6905C39.5811 52.6734 39.7031 52.66 39.8061 52.6524C40.0138 52.6372 40.1416 52.6372 40.1416 52.6372C40.1416 52.6372 40.0615 52.7287 39.909 52.8735C39.8308 52.9479 39.7355 53.0318 39.6192 53.1271C39.5087 53.2281 39.3619 53.3024 39.2056 53.3978C39.0474 53.4835 38.8758 53.5941 38.6756 53.6589ZM57.5056 52.0634C57.477 52.1129 57.4351 52.1873 57.3741 52.275C57.3131 52.3627 57.233 52.4618 57.1339 52.5762C57.0347 52.681 56.9185 52.8049 56.7774 52.9212C56.7088 52.9784 56.6344 53.0413 56.5544 53.0985C56.4762 53.1576 56.3904 53.2109 56.3027 53.2719C56.217 53.3329 56.1197 53.3787 56.0225 53.4321C55.9253 53.4854 55.8262 53.5388 55.7194 53.5827C55.6127 53.6284 55.5021 53.6704 55.3896 53.7104C55.2791 53.758 55.1628 53.7866 55.0446 53.8152C54.9245 53.8438 54.8063 53.88 54.6843 53.901C54.5623 53.9163 54.4384 53.9315 54.3145 53.9487C54.0667 53.983 53.817 53.9677 53.573 53.9601C53.4491 53.962 53.329 53.941 53.2108 53.9201C53.0926 53.901 52.9763 53.8819 52.8639 53.8591C52.7495 53.84 52.6408 53.8038 52.536 53.7657C52.4292 53.7294 52.3263 53.697 52.2291 53.6589C52.0289 53.5941 51.8593 53.4835 51.6991 53.3978C51.5428 53.3024 51.3961 53.2281 51.2855 53.1271C51.1711 53.0318 51.0739 52.9479 50.9957 52.8754C50.8432 52.7287 50.7651 52.6372 50.7651 52.6372C50.7651 52.6372 50.8909 52.6372 51.0987 52.6524C51.2016 52.66 51.3236 52.6734 51.4609 52.6924C51.4952 52.6963 51.5295 52.702 51.5657 52.7058C51.6019 52.7096 51.6401 52.7096 51.6782 52.7134C51.7544 52.7172 51.8345 52.7229 51.9165 52.7287C51.9984 52.7363 52.0823 52.7439 52.17 52.7515C52.2558 52.7649 52.3454 52.7687 52.4369 52.7668C52.5284 52.7687 52.6218 52.7744 52.7152 52.7782C52.8105 52.7801 52.9039 52.7992 53.0011 52.7897C53.1956 52.7801 53.3938 52.7973 53.594 52.782C53.7922 52.7611 53.9962 52.7744 54.1963 52.7382C54.2974 52.7287 54.3984 52.721 54.4975 52.7115C54.5986 52.6963 54.6977 52.6791 54.7968 52.6639C54.997 52.6429 55.1895 52.5933 55.382 52.5628C55.4792 52.5476 55.5688 52.5152 55.6641 52.4999C55.7556 52.4789 55.8491 52.4618 55.9367 52.437C56.1121 52.3913 56.2856 52.3512 56.4419 52.3055C56.6039 52.2654 56.7469 52.2178 56.8822 52.1835C57.0157 52.1434 57.132 52.1072 57.2292 52.0786C57.4293 52.0195 57.5437 51.9852 57.5437 51.9852C57.5437 51.9852 57.5342 52.0138 57.5056 52.0634Z" fill="black"/>
<path d="M8.10294 85.4297L8.29357 85.6127L8.49182 85.5899L8.49944 85.3916C10.7145 85.7538 11.8182 86.4477 11.8087 87.4732L12.1671 88.6246L11.7706 88.6627C11.7744 88.1404 11.6486 87.8888 11.3893 87.9079L11.1911 87.9307L11.3893 88.8915L11.3741 89.0974L10.9852 89.1355C10.7202 89.1564 10.5906 88.9677 10.5963 88.5712L10.3981 88.7847L10.1998 88.8076C9.49832 88.3463 8.84447 88.1423 8.24019 88.1976C6.93251 88.3196 5.53713 89.8351 4.05407 92.7421L3.62707 94.961C3.59657 96.7204 4.42769 97.9004 6.12044 98.499L6.11282 98.9031L5.72394 98.9336L5.70869 99.1395L6.10519 99.1014C7.03926 99.0156 8.30501 97.7098 9.90244 95.1821V94.9839L9.71182 94.9991C8.78538 96.3525 7.91613 97.3552 7.10407 98.011L6.91344 98.0262L9.11707 95.2584L7.74457 95.3804C7.74838 95.1173 7.55394 95.0029 7.15744 95.0372L6.96682 94.8542V94.656C6.96682 94.3929 7.62447 94.1337 8.94169 93.8782L8.94932 93.4894L8.75107 93.6952L7.57682 93.802L6.41782 92.5286L6.62369 92.3075L6.60844 92.1092H8.78157L13.8979 91.0494V90.8435C13.2422 90.9045 12.9162 90.8034 12.9219 90.5385L13.1202 90.5156L13.3184 90.6986L13.5167 90.4851L13.7149 90.4622C15.1427 90.7367 15.8518 91.0036 15.8423 91.2629L15.8576 91.4611L15.6593 91.6746L15.6517 91.8729L16.4294 91.7966L16.4218 92.2007L16.2236 92.216L13.0897 92.9022L13.0821 93.1081L13.2727 93.0852L15.0493 92.7269L15.0417 93.1157C13.7302 93.2377 13.0668 93.8306 13.0516 94.8924L12.4034 98.1177L12.6093 98.3007L12.6017 98.499L12.3729 99.5055L12.5559 101.084L12.1671 101.511L12.3424 101.694C11.8125 101.911 11.5494 102.268 11.5494 102.761L10.9699 102.815C10.705 102.84 10.5811 102.254 10.5963 101.061L10.3981 101.084L10.3752 102.472L9.78044 102.533L9.80332 101.526L9.62032 100.161L9.23144 100.199C8.52994 100.79 7.80176 101.12 7.05069 101.191L6.05944 101.282L5.69344 100.924L5.68582 100.725L6.07469 100.687L6.08232 100.489C3.3621 100.739 1.80851 99.9554 1.42344 98.1406C1.18326 97.3076 1.02694 96.4669 0.950693 95.6167C0.904943 95.0982 0.887786 94.5702 0.897318 94.0307V93.6266C0.924005 92.6163 1.27285 91.2609 1.94957 89.5625L2.14782 89.5472L2.14019 89.9437L1.51494 91.3849L1.52257 91.5831L1.71319 91.5679C1.73797 90.3631 2.87982 88.7428 5.13682 86.7031L5.32744 86.6802L5.33507 86.482L5.14444 86.5049L4.54207 86.7565C4.86613 86.0607 6.05372 85.6184 8.10294 85.4297ZM4.16082 86.9852L4.34382 86.9624L2.94844 88.4874L2.95607 88.2891L4.16082 86.9852ZM7.08119 87.1072L7.08882 87.3055L8.46132 87.1759V86.9776L7.08119 87.1072ZM2.94844 88.4874L2.93319 88.6856L2.14782 89.5472V89.349L2.94844 88.4874ZM11.9459 90.8282L12.7237 90.752L12.3196 91.1942L11.9459 90.8282ZM6.71519 98.0415L6.91344 98.0262L6.51694 98.4609L6.31869 98.4837L6.71519 98.0415ZM7.85132 99.9249L9.44494 98.987L9.45257 98.5905L9.26194 98.6057L7.85132 99.9249ZM6.47119 100.649L6.48644 100.847L7.46244 100.756L7.45482 100.558L6.47119 100.649Z" fill="#C8B8B8"/>
<path d="M21.8652 83.125C21.9758 83.512 22.5133 83.6721 23.4741 83.6054L25.5252 90.384L26.9053 90.2925L26.913 90.4908L25.7463 90.7729L25.7616 90.9711C26.1524 90.9406 26.3563 91.055 26.3716 91.3143L27.95 91.2075L27.9652 91.4058C27.9843 91.7012 27.3476 92.0081 26.0513 92.3284L26.5241 93.4874L26.364 94.0898L26.6461 95.2564L26.4631 95.4699L26.6613 95.4546L26.4707 95.6681L26.8291 98.009L26.913 99.1985L26.6995 99.0155L26.5088 99.0308L27.3018 101.944L26.9053 101.966C26.8786 101.57 26.7376 101.381 26.4783 101.402L26.486 101.6L26.73 102.18L26.5317 102.195L26.3182 102.005L26.12 102.02C26.1447 102.416 26.0285 102.624 25.7692 102.645L24.5492 99.3663L24.351 99.3739L24.4043 100.159L24.2061 100.175L23.6571 97.8336L24.2671 98.1844L24.2595 97.9861C24.0707 96.8176 23.8344 96.2438 23.5503 96.2629L23.7257 96.0494L23.6876 95.4623L23.2987 95.4851L23.3368 96.0723L23.1386 96.0875L23.0852 95.3021L23.2682 95.0886L23.07 95.1039L22.8946 95.3174L22.8412 94.532L23.0318 94.5168L23.2453 94.6921L23.4436 94.6845L23.2301 94.5015L23.1462 93.3196L18.8838 94.6006L18.9143 94.9895L20.2563 94.5091L21.0646 94.654L22.033 94.3871L22.0635 94.776C19.3375 95.4623 18.0031 96.2152 18.0603 97.033C17.8106 98.5027 17.477 99.4501 17.0615 99.8771L17.092 100.266L16.5125 100.304L16.299 100.121L16.1007 100.129L16.116 100.327L15.4907 99.9839L15.8033 98.7639L15.6051 98.7791C15.2086 98.8058 15.0485 99.3434 15.1247 100.396L14.7053 100.037L14.8197 98.8325L14.1868 98.2911L16.9852 89.9799L17.1835 89.9723C17.2082 90.3688 17.3531 90.5575 17.6181 90.5365L17.7477 89.53L17.5647 89.7435L17.3665 89.7588L17.3131 88.9734L17.4427 87.9745L17.6562 88.1575L17.8468 88.1499L17.641 87.9593L17.6257 87.761L17.9612 86.9528L18.1595 86.9375L18.373 87.1205L18.5712 87.1053L18.556 86.907C18.5407 86.6439 18.3348 86.5258 17.9383 86.5563L18.739 83.7274L19.5167 83.674L19.3337 83.8875L19.349 84.0858C20.2277 83.4967 21.0665 83.1765 21.8652 83.125ZM20.9883 87.7305L19.6921 91.97L20.081 91.9471C21.3963 91.8556 22.0959 91.4115 22.1778 90.6128L21.1866 87.7153L20.9883 87.7305ZM19.2956 89.0268L18.9982 90.445L18.7847 90.2544L18.5865 90.2696L18.8381 91.0398L19.0363 91.0321L19.5015 89.2098L19.4938 89.0115L19.2956 89.0268ZM17.2521 90.9559L17.0615 91.1618L17.092 91.5583L17.2902 91.5506L17.4503 90.9406L17.2521 90.9559ZM18.4873 91.6574L18.3425 92.4656L18.5407 92.4504L18.7237 92.2369L18.6856 91.6421L18.4873 91.6574ZM16.7183 91.9776L16.5735 92.7783L16.7717 92.763L17.1148 91.9471L16.7183 91.9776ZM20.1115 92.3436L20.1191 92.5343L20.5156 92.5038C21.6936 92.296 22.2731 92.0596 22.2541 91.7946L22.0558 91.8099L20.1115 92.3436ZM23.1691 96.484L23.5656 96.4611L23.6418 97.6506L23.4436 97.6583L23.1691 96.484ZM26.0208 97.6659L26.0437 98.0624L26.303 98.8478L26.5012 98.8325L26.4707 98.436L26.2191 97.6583L26.0208 97.6659ZM24.0841 98.3979L24.1146 98.7944L24.6941 98.558L24.6636 98.1615L24.0841 98.3979Z" fill="#C8B8B8"/>
<path d="M38.5903 82.8478L38.9868 82.8325L38.9716 83.229L38.5369 84.0373L38.3616 83.8466L38.1633 83.8543L38.5903 82.8478ZM31.2932 83.3739L31.6821 83.3586L32.2616 83.7323V83.534C32.9726 83.637 33.4854 83.942 33.8018 84.449C34.2536 84.43 34.7873 85.7891 35.4031 88.5284L37.9422 84.266L38.1481 84.0525L38.3463 84.0449L38.3387 84.2431L35.7614 89.2985L36.1579 89.2756C38.0375 85.1124 39.1736 83.0231 39.5663 83.0079L40.1458 83.3739L40.1534 83.1756C40.7177 83.1509 41.4135 83.778 42.2427 85.059L42.2198 85.6538L42.0139 85.8596L42.1969 86.0503L42.1664 86.8433L41.7699 86.8661L42.1131 88.0251L41.8233 90.2135L41.7928 90.8083L41.9911 90.9913L41.9758 91.1971L41.5793 91.6089L41.9377 91.9901L41.5412 92.3943L41.9072 92.7755L41.7089 92.989L41.5107 92.9966L41.7013 93.1873L41.4573 98.7306C41.0646 98.7459 40.8645 98.9518 40.8549 99.3483C40.4584 99.3673 40.2449 99.7066 40.2144 100.362L39.6273 100.393L38.4759 99.6533L38.7276 98.4561L38.3768 97.2819L39.3376 88.7495C38.7066 89.4625 38.0508 90.9379 37.3703 93.1796C37.3341 93.9536 37.0501 94.495 36.5163 94.8038L36.3181 94.8114V94.6131L36.5316 94.4149L36.5468 94.209L36.3486 94.0184L36.7603 93.6066L36.7832 93.0119L36.3867 93.0271C36.3657 93.7496 36.0817 94.2891 35.5327 94.6436L35.3344 94.6589L34.3889 93.7134C34.042 93.7286 33.8094 93.1472 33.6874 91.9673C32.9497 90.6253 32.5932 89.6531 32.6199 89.0469L32.4217 89.0545L32.1319 91.4411L32.0633 93.0195L31.8498 93.6295L32.0023 94.6131L31.8193 98.9594C31.5543 98.9746 31.4114 99.1805 31.3923 99.577L30.3706 100.606L30.1723 100.622L28.8074 100.088L29.0514 99.089L28.9447 96.9159L28.9904 95.9246L29.1887 95.7188L28.9981 95.5281L29.0133 95.3299C29.0991 93.3131 29.3888 91.1266 29.8826 88.7724L30.0808 88.7648L29.8902 88.5741L29.8978 88.3759L30.1342 87.5753L29.9588 86.7975L29.9741 86.5993L30.1723 86.5916L30.1494 86.9881L30.3477 86.9805L30.3858 86.3858L30.1876 86.1951L30.8509 84.7769L30.8662 84.1821L30.6527 84.388L30.4544 84.4033L30.2714 84.2126L30.2943 83.6179L30.4926 83.6103L30.6832 83.8009L30.8814 83.7933L31.2932 83.3739ZM36.6307 92.0283L36.8061 92.6078L37.0043 92.6001C37.0291 91.8986 37.763 90.0896 39.2079 87.1711L39.4443 86.1723C38.5141 87.438 37.5762 89.39 36.6307 92.0283ZM39.9552 87.7278L39.7569 87.9336L39.5511 92.8823L39.7493 92.8746L40.1153 88.7114L39.9247 88.5208L40.1229 88.5131L39.9399 88.3225V88.1243L40.1458 87.9184L40.1534 87.7125L39.9552 87.7278ZM39.1393 98.0368L39.0707 99.6304L39.2689 99.6228L39.5129 98.6163L39.3376 98.0291L39.1393 98.0368Z" fill="#C8B8B8"/>
<path d="M53.2981 82.7209L54.2665 83.3614C54.011 84.5319 53.5211 85.0999 52.7949 85.0694L47.648 85.4278L47.6327 85.8167L48.6087 85.8624L49.8059 85.7252L49.9889 85.9387L50.1871 85.9463L51.5825 85.7938L51.9714 85.8243V86.0226L47.3887 86.6021L47.0914 89.1641L47.2896 89.1717L52.65 88.6227L52.8177 88.8286V89.0268L52.4212 88.9963V89.1946L53.7861 89.4691V89.6673C53.5116 90.405 51.6359 91.0436 48.1589 91.5812L46.1764 91.6956L46.3594 91.8862L45.4749 94.4177L45.2766 94.4253L45.3529 92.6487L45.147 92.6411L44.8344 95.3861C48.7574 94.7723 51.5367 94.4997 53.1685 94.5702L54.1369 94.8142V95.2107L53.7404 95.1954L53.9234 95.4013L53.8929 95.9961C53.5307 96.4955 52.73 96.7204 51.491 96.6747V96.8729L53.0694 96.9416L53.0389 97.3304L43.8889 98.8936L43.6906 98.8859C43.0539 98.7639 42.7337 98.5676 42.7299 98.2988L42.7222 98.2607L42.7527 97.6659L43.2407 95.5157L43.0501 95.3174H43.4542L43.4009 96.3087L43.5991 96.3239C43.6639 95.6644 43.8126 95.3441 44.0414 95.3632L43.8507 95.1421L43.9422 93.1824L43.5457 93.1519L43.3017 94.1356L43.5152 93.9449L43.7135 93.9526L43.6601 95.1421L43.4695 95.1192L43.4847 94.5321H43.2865L43.2712 94.9286L43.073 94.9209L43.0882 94.5244L43.6449 91.1771L43.4466 91.1694L43.8736 90.2087L43.683 89.9952L43.6906 89.7969L44.049 86.4572L44.232 86.6707H44.4302L44.4455 86.2818L44.293 85.2829L44.5675 83.5139L44.5904 82.9192L44.7886 82.9421L44.9716 83.1479L45.1851 82.9573L45.3757 82.9802L45.574 83.1632L45.7722 82.9802L46.367 83.0107L53.2981 82.7209ZM43.6144 91.5736L43.5534 92.9537L43.7516 92.9613L43.8126 91.5888L43.6144 91.5736ZM50.1337 91.6727L50.332 91.6651L50.3091 91.8633L46.7482 92.3132L46.5576 92.0997V91.9091L48.3495 91.7871L48.3419 91.9853L50.1337 91.6727Z" fill="#C8B8B8"/>
<path d="M70.0007 82.6531C71.5505 82.6683 72.9935 83.1449 74.3317 84.079L74.1335 84.2772V84.4755L74.9112 85.665L74.5147 85.6573L74.3165 85.4591H74.1182L74.6748 89.8053L74.8731 89.813C74.8769 89.1534 75.0123 88.8217 75.2772 88.8217L75.2696 89.6147C75.2639 90.3581 74.5872 92.0623 73.2413 94.7311H73.4396C72.4979 95.9968 71.1063 97.1692 69.2611 98.2462L68.2698 98.4292H68.0716C64.9453 98.3987 62.9819 97.1291 62.1851 94.6167L61.4073 93.4272L61.6056 93.2366L61.4226 91.8488V91.4523C61.4378 90.36 62.5092 88.4614 64.6403 85.7565V85.9547C63.6586 87.251 62.8561 88.6921 62.2308 90.2781V90.4687L62.4291 90.4763C62.9209 88.5548 64.7204 86.1377 67.8276 83.225L66.4322 84.0027H66.2416C66.2454 83.3984 67.4997 82.9485 70.0007 82.6531ZM68.9866 86.0005L68.7883 85.8022V86.0005L68.979 86.1987L67.5912 87.3653C66.497 87.3558 65.4276 89.1877 64.3811 92.863C64.3697 93.9152 64.953 94.8455 66.1272 95.6537H66.3178C67.7609 95.669 69.4231 94.1706 71.3046 91.155C71.9756 89.7215 72.313 88.673 72.3187 88.0058L72.334 86.4275C72.3378 86.0615 71.682 85.7927 70.3667 85.6192H70.1685L69.9702 85.8098H69.7796V85.6116L68.9866 86.0005ZM74.7053 86.6486L75.1018 86.6562L75.0942 87.6398L74.6977 87.6322L74.7053 86.6486ZM64.6098 88.715L64.0075 89.9045H64.2057L64.8081 88.7226L64.6098 88.715ZM72.2958 89.9807L71.4952 91.948L72.0823 91.9556L72.6923 90.5755L72.4941 89.9883L72.2958 89.9807ZM73.6683 90.7813L73.4777 91.3761L73.4701 91.7726H73.6607L73.8666 90.9796V90.7813H73.6683ZM62.0173 91.46L62.0021 93.0383H62.2003L62.2156 91.46H62.0173ZM71.297 92.1462L70.4887 93.1222H70.687L71.4952 92.1462H71.297ZM64.9301 96.4238V96.6221L65.9137 97.2245V97.0262L64.9301 96.4238Z" fill="#C8B8B8"/>
<path d="M79.8637 83.001L81.2057 84.2286C81.2153 83.8321 81.3525 83.6396 81.6175 83.6491L81.8157 83.6567L84.3244 90.8547L84.3167 91.2512L84.1185 91.2436L83.7677 90.0541L83.5695 90.0465L83.5542 90.443L84.82 93.8361L85.0182 93.8437C85.6587 90.443 86.5375 86.8974 87.6565 83.2069L88.236 83.6262L88.8384 83.4432L90.005 84.0837L89.9974 84.2744C89.6009 84.2591 89.3912 84.5164 89.3721 85.0445L89.5704 85.0521L89.761 85.258L89.9592 85.2656L90.1956 84.282L90.5921 84.2896L90.5845 84.4879L90.3786 84.6785L90.5692 84.8844L90.5616 85.0826C89.4674 88.0983 88.4285 92.4255 87.443 98.068L87.0541 98.0604L87.5497 94.9112C87.2905 94.9074 86.852 96.1446 86.2382 98.6246C85.735 99.0059 85.266 99.1889 84.8352 99.1736L84.82 99.5625L84.6217 99.5549C84.6313 99.2956 84.372 99.1545 83.844 99.1355L83.8897 97.7477C83.9088 97.153 82.7117 93.8247 80.2984 87.759L80.1001 87.7514C79.4901 90.0751 78.9182 93.2166 78.3845 97.1759L78.2015 96.97C77.4028 97.1739 76.9967 97.4866 76.9815 97.9079L76.585 97.9002C76.341 97.397 76.238 96.5392 76.28 95.323L76.0817 95.3154L76.0207 97.092L75.6242 97.0767L75.4641 96.0779C75.5861 92.5094 76.524 88.1993 78.2777 83.1459L79.8637 83.001ZM76.9281 87.8429L76.9205 88.0411L77.1111 88.2394L76.9052 88.4376L76.89 88.8265H77.0882L77.317 88.0487L77.1264 87.8429H76.9281ZM84.3167 91.2512C84.656 91.2665 84.9039 91.8002 85.0564 92.8525L85.0487 93.0507L84.8505 93.0431L84.3167 91.2512Z" fill="#C8B8B8"/>
</svg>
