<svg width="121" height="101" viewBox="0 0 121 101" fill="none" xmlns="http://www.w3.org/2000/svg">
<path fill-rule="evenodd" clip-rule="evenodd" d="M119.925 77.3011C117.56 80.5264 111.77 82.8263 111.77 82.8263L68.6915 99.5605V87.2201L100.394 75.0038C103.992 73.6093 104.544 71.6391 101.62 70.6042C98.7013 69.5665 93.4158 69.8639 89.8158 71.2644L68.6915 79.3103V66.5026L69.9095 66.0571C69.9095 66.0571 76.0132 63.7208 84.5969 62.6924C93.1799 61.67 103.689 62.8319 111.94 66.2144C121.238 69.3921 122.285 74.0759 119.924 77.3011H119.925ZM72.7927 56.2869V24.7266C72.7927 21.0202 72.1602 17.6086 68.9445 16.6423C66.4818 15.7891 64.954 18.2616 64.954 21.9653V101L45.2457 94.2349V0C53.6252 1.68201 65.834 5.65936 72.3967 8.05184C89.0873 14.2492 94.7462 21.9626 94.7462 39.3419C94.7462 56.281 85.0778 62.701 72.7927 56.2869ZM9.08263 85.93C-0.462912 83.0226 -2.05119 76.9654 2.29931 73.4758C6.32041 70.2539 13.1587 67.8283 13.1587 67.8283L41.4171 56.9617V69.3504L21.0818 77.2205C17.4897 78.6144 16.9372 80.5878 19.8565 81.6222C22.7776 82.6565 28.0655 82.3624 31.6631 80.9652L41.4171 77.1372V88.2207C40.7986 88.3396 40.1093 88.4586 39.4713 88.5743C29.7143 90.2986 19.323 89.5788 9.08263 85.9293V85.93ZM113.647 90.8372C114.881 90.8372 116.038 91.354 116.909 92.3084C117.339 92.77 117.68 93.3193 117.912 93.9244C118.144 94.5296 118.263 95.1786 118.261 95.8337C118.263 96.4889 118.145 97.138 117.913 97.7432C117.681 98.3485 117.34 98.8977 116.909 99.359C116.483 99.8255 115.975 100.195 115.414 100.447C114.854 100.699 114.253 100.827 113.647 100.824C113.04 100.826 112.439 100.698 111.879 100.447C111.319 100.195 110.811 99.8252 110.385 99.359C109.955 98.8976 109.614 98.3483 109.382 97.743C109.15 97.1378 109.033 96.4887 109.035 95.8337C109.035 93.081 111.102 90.8372 113.647 90.8372ZM109.81 95.8337C109.81 96.942 110.209 97.9856 110.935 98.7641C111.289 99.1523 111.711 99.46 112.177 99.6692C112.643 99.8785 113.142 99.9851 113.647 99.9829C114.664 99.9825 115.64 99.5453 116.359 98.7672C117.079 97.9892 117.483 96.9341 117.484 95.8337C117.484 94.722 117.088 93.6791 116.359 92.8966C116.005 92.5088 115.582 92.2016 115.116 91.9929C114.651 91.7842 114.151 91.6782 113.647 91.6812C113.142 91.6783 112.643 91.7844 112.177 91.9932C111.711 92.202 111.288 92.5094 110.934 92.8973C110.576 93.2817 110.292 93.7393 110.099 94.2434C109.906 94.7475 109.808 95.2881 109.81 95.8337V95.8337ZM115.04 93.1438C115.546 93.3843 115.801 93.8483 115.801 94.5079C115.801 94.8469 115.735 95.1318 115.601 95.3552C115.504 95.5158 115.368 95.646 115.214 95.759C115.335 95.8363 115.441 95.9288 115.521 96.0359C115.631 96.1899 115.694 96.4371 115.702 96.7728L115.727 97.4833C115.735 97.6736 115.746 97.819 115.774 97.9083C115.801 98.0391 115.853 98.1224 115.92 98.1488L115.988 98.1845V98.5084H114.994L114.961 98.4462C114.931 98.377 114.909 98.3043 114.895 98.2295C114.874 98.0857 114.862 97.9407 114.859 97.7952L114.818 96.9123C114.807 96.6063 114.711 96.4166 114.529 96.3148C114.416 96.2586 114.23 96.2322 113.977 96.2322H112.577V98.5084H111.684V92.9534H114.07C114.46 92.9534 114.788 93.0156 115.04 93.1438V93.1438ZM112.577 95.3816H114.001C114.287 95.3816 114.515 95.3254 114.678 95.2098C114.826 95.0935 114.898 94.8826 114.898 94.576C114.898 94.2435 114.796 94.0261 114.581 93.9104C114.463 93.8483 114.298 93.8126 114.089 93.8126H112.578V95.3816H112.577Z" fill="#585252"/>
</svg>
