<svg width="106" height="106" viewBox="0 0 106 106" fill="none" xmlns="http://www.w3.org/2000/svg">
<path d="M52.9138 0C25.0855 0 2.2591 21.4617 0.102661 48.7401L28.5007 60.4896C30.9155 58.8499 33.814 57.8859 36.9542 57.8859C37.2292 57.8859 37.5074 57.9025 37.7823 57.9025L50.4129 39.6142V39.3558C50.4129 28.3318 59.3666 19.3781 70.3906 19.3781C81.4146 19.3781 90.3848 28.3484 90.3848 39.3724C90.3848 50.3964 81.4146 59.3501 70.3906 59.3501H69.9434L51.93 72.2026C51.93 72.4444 51.9466 72.6696 51.9466 72.9114C51.9466 81.1927 45.252 87.9038 36.9708 87.9038C29.7595 87.9038 23.6512 82.7264 22.2533 75.8629L1.93116 67.4425C8.22822 89.6992 28.6398 106.003 52.9138 106.003C82.1732 106.003 105.897 82.2825 105.897 53.0033C105.897 23.7241 82.1765 0.0033125 52.9138 0.0033125V0ZM33.2972 80.4308L26.7915 77.7378C27.9475 80.136 29.9483 82.1368 32.6049 83.2597C38.3322 85.6414 44.9407 82.9152 47.3223 77.1879C48.4784 74.3921 48.4784 71.3579 47.3389 68.5787C46.1994 65.7829 44.0264 63.6265 41.2472 62.4704C38.5045 61.3144 35.553 61.3674 32.966 62.3313L39.6771 65.1105C43.9038 66.886 45.9046 71.7355 44.1457 75.9622C42.3867 80.189 37.5207 82.1898 33.2939 80.4308H33.2972ZM83.7102 39.3359C83.7102 32.0021 77.741 26.0164 70.4072 26.0164C63.0402 26.0164 57.0876 32.0021 57.0876 39.3359C57.0876 46.6864 63.0402 52.6555 70.4072 52.6555C77.741 52.6555 83.7102 46.6864 83.7102 39.3359ZM60.4365 39.3194C60.4365 33.7809 64.9051 29.3123 70.427 29.3123C75.949 29.3123 80.4507 33.7809 80.4507 39.3194C80.4507 44.8413 75.949 49.3264 70.427 49.3264C64.9051 49.3264 60.4365 44.8413 60.4365 39.3194V39.3194Z" fill="#585252"/>
</svg>
