<svg width="103" height="107" viewBox="0 0 103 107" fill="none" xmlns="http://www.w3.org/2000/svg">
<path d="M91.0469 71.8594C83.6094 88.5938 68.4688 97.3594 52.2656 97.0938C21.1875 95.5 12.1562 59.6407 32.875 46.625L33.6719 47.6875C11.0938 76.9063 55.4531 105.063 75.9062 71.3282C92.6406 36.2657 50.9375 1.73442 14.8125 28.2969L14.0156 27.5C23.5781 12.3594 42.1719 5.7188 59.7031 10.2344C66.12 11.726 72.1328 14.6036 77.3196 18.6653C82.5065 22.727 86.7418 27.8744 89.7285 33.7464C92.7151 39.6185 94.3807 46.0729 94.6085 52.6569C94.8362 59.2409 93.6206 65.795 91.0469 71.8594V71.8594ZM61.8281 71.3282C60.4877 73.299 58.66 74.8895 56.5229 75.9449C54.3858 77.0003 52.0119 77.4847 49.6321 77.351C47.2524 77.2173 44.9477 76.47 42.9422 75.1819C40.9368 73.8938 39.2988 72.1087 38.1875 70C33.1406 59.375 40.3125 49.8125 49.3438 49.5469C60.5 49.0157 65.0156 61.5 58.1094 68.6719L61.8281 71.3282ZM13.2188 70L11.8906 70.5313C-0.0625 24.5782 58.9062 12.625 70.5938 49.0157L69.5312 49.5469C52 24.5782 11.625 33.3438 13.2188 70ZM102.734 53C102.592 41.067 98.455 29.5258 90.985 20.219C83.5149 10.9122 73.1422 4.37636 61.5227 1.65496C49.9033 -1.06645 37.707 0.183483 26.8811 5.2052C16.0552 10.2269 7.22382 18.7309 1.79688 29.3594L5.78125 32.2813C2.32812 39.9844 0.734375 47.4219 0.734375 55.125C2.32812 89.125 27.2969 106.125 52.2656 106.125C77.2344 105.859 103 86.2032 102.734 53Z" fill="#585252"/>
</svg>
