<svg width="116" height="106" viewBox="0 0 116 106" fill="none" xmlns="http://www.w3.org/2000/svg">
<g clip-path="url(#clip0_7_62)">
<path d="M32.0373 5.59539C40.1355 1.88332 48.8709 0.000366211 58.0004 0.000366211C67.0031 0.000366211 75.632 1.83363 83.6455 5.45026C84.4761 5.82519 84.9827 6.61439 84.9351 7.45949C84.8886 8.3046 84.2957 9.04411 83.428 9.34037C74.6131 12.3419 66.4002 16.3749 59.0184 21.3256C58.6092 21.6012 58.1275 21.7378 57.6447 21.7378C57.1619 21.7378 56.6802 21.6012 56.2711 21.3256C48.998 16.4473 40.919 12.4599 32.2584 9.47494C31.3959 9.17868 30.8077 8.44124 30.7599 7.60028C30.7112 6.75952 31.2133 5.97239 32.0373 5.59539ZM57.6447 17.0007C63.517 13.1976 69.8675 9.94139 76.5955 7.27958C64.6267 3.20086 50.9518 3.24848 39.0238 7.41208C45.6269 10.047 51.8676 13.2597 57.6447 17.0007Z" fill="#585252"/>
<path d="M21.612 11.7269C22.3726 11.1656 23.4368 11.1012 24.2732 11.5654C29.913 14.6911 38.6359 19.8054 48.1579 26.4176C48.6939 26.7884 49.0261 27.3538 49.0703 27.9691C49.1133 28.5823 48.8639 29.1829 48.3856 29.6137C45.0227 32.6526 41.8638 35.9626 38.9964 39.4531C25.7672 55.573 20.5782 68.1922 18.724 76.861C25.4192 62.9017 37.9583 48.6958 56.1372 34.5024C57.0054 33.8229 58.2839 33.8229 59.1521 34.5024C77.357 48.7165 89.9018 62.9369 96.5902 76.9086C94.7405 68.1671 89.5212 55.573 76.2917 39.4531C73.4253 35.9628 70.2663 32.6505 66.9037 29.6137C66.4243 29.1829 66.1748 28.5821 66.2181 27.9691C66.2623 27.3538 66.5944 26.7884 67.1307 26.4176C76.8224 19.6897 85.6902 14.5048 91.4241 11.3397C92.2549 10.8799 93.3091 10.9441 94.0683 11.4929C108.006 21.618 116 36.7476 116 53C116 65.9196 110.854 78.3667 101.512 88.0444C101.248 88.3179 100.919 88.5187 100.56 88.6369C100.461 88.9766 100.27 89.2936 99.9974 89.5545C88.9387 100.16 74.0239 106 58.0007 106C41.888 106 26.3669 99.7978 15.418 88.9849C15.1051 88.6762 14.9046 88.2951 14.8321 87.8912C14.406 87.7773 14.0161 87.5514 13.7156 87.2283C4.87132 77.681 0 65.526 0 53C0 36.8926 7.87735 21.8499 21.612 11.7269ZM101.889 80.7343C108.03 72.6247 111.358 62.9657 111.358 53C111.358 38.5395 104.479 25.0462 92.4259 15.7474C87.2531 18.6454 80.0013 22.9395 72.0505 28.3438C74.8751 31.0367 77.5431 33.9078 80.0049 36.9091C96.1232 56.5462 100.852 71.4316 101.889 80.7343ZM58.0005 101.757C72.3156 101.757 85.6696 96.6906 95.7469 87.4624C91.1712 71.703 78.3625 55.3823 57.6445 38.9144C37.1601 55.1958 24.4035 71.3426 19.6964 86.9446C29.7125 96.3716 43.5992 101.757 58.0005 101.757ZM35.2835 36.907C37.7464 33.9076 40.4144 31.0367 43.239 28.3438C35.4561 23.0554 28.3538 18.8359 23.2761 15.9795C11.4126 25.2698 4.64272 38.6782 4.64272 53C4.64272 62.6073 7.75614 71.9763 13.5061 79.9161C14.7209 70.7107 19.5673 56.0574 35.2835 36.907Z" fill="#585252"/>
</g>
<defs>
<clipPath id="clip0_7_62">
<rect width="116" height="106" fill="white" transform="matrix(-1 0 0 1 116 0)"/>
</clipPath>
</defs>
</svg>
